<?xml version="1.0" encoding="utf-8" standalone="no"?>
<!DOCTYPE svg PUBLIC "-//W3C//DTD SVG 1.1//EN"
  "http://www.w3.org/Graphics/SVG/1.1/DTD/svg11.dtd">
<svg xmlns:xlink="http://www.w3.org/1999/xlink" width="864pt" height="432pt" viewBox="0 0 864 432" xmlns="http://www.w3.org/2000/svg" version="1.1">
 <metadata>
  <rdf:RDF xmlns:dc="http://purl.org/dc/elements/1.1/" xmlns:cc="http://creativecommons.org/ns#" xmlns:rdf="http://www.w3.org/1999/02/22-rdf-syntax-ns#">
   <cc:Work>
    <dc:type rdf:resource="http://purl.org/dc/dcmitype/StillImage"/>
    <dc:date>2025-03-06T16:24:31.342027</dc:date>
    <dc:format>image/svg+xml</dc:format>
    <dc:creator>
     <cc:Agent>
      <dc:title>Matplotlib v3.10.0, https://matplotlib.org/</dc:title>
     </cc:Agent>
    </dc:creator>
   </cc:Work>
  </rdf:RDF>
 </metadata>
 <defs>
  <style type="text/css">*{stroke-linejoin: round; stroke-linecap: butt}</style>
 </defs>
 <g id="figure_1">
  <g id="patch_1">
   <path d="M 0 432 
L 864 432 
L 864 0 
L 0 0 
z
" style="fill: #ffffff"/>
  </g>
  <g id="axes_1">
   <g id="patch_2">
    <path d="M 108 384.48 
L 777.6 384.48 
L 777.6 51.84 
L 108 51.84 
z
" style="fill: #ffffff"/>
   </g>
   <g id="matplotlib.axis_1">
    <g id="xtick_1">
     <g id="line2d_1">
      <path d="M 138.436364 384.48 
L 138.436364 51.84 
" clip-path="url(#p3629eef627)" style="fill: none; stroke: #b0b0b0; stroke-width: 0.8; stroke-linecap: square"/>
     </g>
     <g id="line2d_2">
      <defs>
       <path id="md7200ea5d7" d="M 0 0 
L 0 3.5 
" style="stroke: #000000; stroke-width: 0.8"/>
      </defs>
      <g>
       <use xlink:href="#md7200ea5d7" x="138.436364" y="384.48" style="stroke: #000000; stroke-width: 0.8"/>
      </g>
     </g>
     <g id="text_1">
      <!-- 0 -->
      <g transform="translate(134.436364 402.48) scale(0.16 -0.16)">
       <defs>
        <path id="SimHei-30" d="M 225 2537 
Q 250 3200 412 3587 
Q 575 3975 875 4225 
Q 1175 4475 1612 4475 
Q 2050 4475 2375 4112 
Q 2700 3750 2800 3200 
Q 2900 2650 2862 1937 
Q 2825 1225 2612 775 
Q 2400 325 1975 150 
Q 1550 -25 1125 187 
Q 700 400 525 750 
Q 350 1100 275 1487 
Q 200 1875 225 2537 
z
M 750 2687 
Q 675 2000 800 1462 
Q 925 925 1212 700 
Q 1500 475 1800 612 
Q 2100 750 2237 1162 
Q 2375 1575 2375 2062 
Q 2375 2550 2337 2950 
Q 2300 3350 2112 3675 
Q 1925 4000 1612 4012 
Q 1300 4025 1062 3700 
Q 825 3375 750 2687 
z
" transform="scale(0.015625)"/>
       </defs>
       <use xlink:href="#SimHei-30"/>
      </g>
     </g>
    </g>
    <g id="xtick_2">
     <g id="line2d_3">
      <path d="M 261.41157 384.48 
L 261.41157 51.84 
" clip-path="url(#p3629eef627)" style="fill: none; stroke: #b0b0b0; stroke-width: 0.8; stroke-linecap: square"/>
     </g>
     <g id="line2d_4">
      <g>
       <use xlink:href="#md7200ea5d7" x="261.41157" y="384.48" style="stroke: #000000; stroke-width: 0.8"/>
      </g>
     </g>
     <g id="text_2">
      <!-- 20 -->
      <g transform="translate(253.41157 402.48) scale(0.16 -0.16)">
       <defs>
        <path id="SimHei-32" d="M 300 250 
Q 325 625 650 925 
Q 975 1225 1475 1862 
Q 1975 2500 2125 2850 
Q 2275 3200 2237 3450 
Q 2200 3700 2000 3862 
Q 1800 4025 1537 4000 
Q 1275 3975 1037 3800 
Q 800 3625 675 3275 
L 200 3350 
Q 400 3925 712 4187 
Q 1025 4450 1450 4475 
Q 1700 4500 1900 4462 
Q 2100 4425 2312 4287 
Q 2525 4150 2662 3875 
Q 2800 3600 2762 3212 
Q 2725 2825 2375 2287 
Q 2025 1750 1025 600 
L 2825 600 
L 2825 150 
L 300 150 
L 300 250 
z
" transform="scale(0.015625)"/>
       </defs>
       <use xlink:href="#SimHei-32"/>
       <use xlink:href="#SimHei-30" transform="translate(50 0)"/>
      </g>
     </g>
    </g>
    <g id="xtick_3">
     <g id="line2d_5">
      <path d="M 384.386777 384.48 
L 384.386777 51.84 
" clip-path="url(#p3629eef627)" style="fill: none; stroke: #b0b0b0; stroke-width: 0.8; stroke-linecap: square"/>
     </g>
     <g id="line2d_6">
      <g>
       <use xlink:href="#md7200ea5d7" x="384.386777" y="384.48" style="stroke: #000000; stroke-width: 0.8"/>
      </g>
     </g>
     <g id="text_3">
      <!-- 40 -->
      <g transform="translate(376.386777 402.48) scale(0.16 -0.16)">
       <defs>
        <path id="SimHei-34" d="M 2000 1100 
L 75 1100 
L 75 1525 
L 2100 4450 
L 2475 4450 
L 2475 1525 
L 3075 1525 
L 3075 1100 
L 2475 1100 
L 2475 150 
L 2000 150 
L 2000 1100 
z
M 2000 1525 
L 2000 3500 
L 600 1525 
L 2000 1525 
z
" transform="scale(0.015625)"/>
       </defs>
       <use xlink:href="#SimHei-34"/>
       <use xlink:href="#SimHei-30" transform="translate(50 0)"/>
      </g>
     </g>
    </g>
    <g id="xtick_4">
     <g id="line2d_7">
      <path d="M 507.361983 384.48 
L 507.361983 51.84 
" clip-path="url(#p3629eef627)" style="fill: none; stroke: #b0b0b0; stroke-width: 0.8; stroke-linecap: square"/>
     </g>
     <g id="line2d_8">
      <g>
       <use xlink:href="#md7200ea5d7" x="507.361983" y="384.48" style="stroke: #000000; stroke-width: 0.8"/>
      </g>
     </g>
     <g id="text_4">
      <!-- 60 -->
      <g transform="translate(499.361983 402.48) scale(0.16 -0.16)">
       <defs>
        <path id="SimHei-36" d="M 250 1612 
Q 275 1975 387 2225 
Q 500 2475 725 2850 
L 1750 4450 
L 2325 4450 
L 1275 2800 
Q 1950 2975 2350 2750 
Q 2750 2525 2887 2237 
Q 3025 1950 3037 1612 
Q 3050 1275 2937 950 
Q 2825 625 2537 362 
Q 2250 100 1737 75 
Q 1225 50 862 262 
Q 500 475 362 862 
Q 225 1250 250 1612 
z
M 1025 787 
Q 1250 550 1625 525 
Q 2000 500 2250 775 
Q 2500 1050 2500 1575 
Q 2500 2100 2187 2300 
Q 1875 2500 1487 2450 
Q 1100 2400 925 2075 
Q 750 1750 775 1387 
Q 800 1025 1025 787 
z
" transform="scale(0.015625)"/>
       </defs>
       <use xlink:href="#SimHei-36"/>
       <use xlink:href="#SimHei-30" transform="translate(50 0)"/>
      </g>
     </g>
    </g>
    <g id="xtick_5">
     <g id="line2d_9">
      <path d="M 630.33719 384.48 
L 630.33719 51.84 
" clip-path="url(#p3629eef627)" style="fill: none; stroke: #b0b0b0; stroke-width: 0.8; stroke-linecap: square"/>
     </g>
     <g id="line2d_10">
      <g>
       <use xlink:href="#md7200ea5d7" x="630.33719" y="384.48" style="stroke: #000000; stroke-width: 0.8"/>
      </g>
     </g>
     <g id="text_5">
      <!-- 80 -->
      <g transform="translate(622.33719 402.48) scale(0.16 -0.16)">
       <defs>
        <path id="SimHei-38" d="M 175 1375 
Q 175 1675 325 1962 
Q 475 2250 825 2425 
Q 525 2600 425 2812 
Q 325 3025 312 3300 
Q 300 3575 387 3775 
Q 475 3975 650 4150 
Q 825 4325 1037 4387 
Q 1250 4450 1500 4450 
Q 1750 4450 1950 4400 
Q 2150 4350 2375 4187 
Q 2600 4025 2700 3725 
Q 2800 3425 2687 3025 
Q 2575 2625 2100 2400 
Q 2525 2275 2700 2012 
Q 2875 1750 2875 1375 
Q 2875 1000 2762 775 
Q 2650 550 2512 400 
Q 2375 250 2137 162 
Q 1900 75 1537 75 
Q 1175 75 912 162 
Q 650 250 475 425 
Q 300 600 237 837 
Q 175 1075 175 1375 
z
M 687 1400 
Q 675 1100 787 875 
Q 900 650 1200 587 
Q 1500 525 1825 600 
Q 2150 675 2275 950 
Q 2400 1225 2362 1500 
Q 2325 1775 2050 1962 
Q 1775 2150 1450 2125 
Q 1125 2100 912 1900 
Q 700 1700 687 1400 
z
M 775 3350 
Q 775 3100 950 2875 
Q 1125 2650 1500 2650 
Q 1875 2650 2062 2875 
Q 2250 3100 2237 3412 
Q 2225 3725 2012 3875 
Q 1800 4025 1437 4000 
Q 1075 3975 925 3787 
Q 775 3600 775 3350 
z
" transform="scale(0.015625)"/>
       </defs>
       <use xlink:href="#SimHei-38"/>
       <use xlink:href="#SimHei-30" transform="translate(50 0)"/>
      </g>
     </g>
    </g>
    <g id="xtick_6">
     <g id="line2d_11">
      <path d="M 753.312397 384.48 
L 753.312397 51.84 
" clip-path="url(#p3629eef627)" style="fill: none; stroke: #b0b0b0; stroke-width: 0.8; stroke-linecap: square"/>
     </g>
     <g id="line2d_12">
      <g>
       <use xlink:href="#md7200ea5d7" x="753.312397" y="384.48" style="stroke: #000000; stroke-width: 0.8"/>
      </g>
     </g>
     <g id="text_6">
      <!-- 100 -->
      <g transform="translate(741.312397 402.48) scale(0.16 -0.16)">
       <defs>
        <path id="SimHei-31" d="M 1400 3600 
Q 1075 3275 575 2975 
L 575 3450 
Q 1200 3875 1600 4450 
L 1900 4450 
L 1900 150 
L 1400 150 
L 1400 3600 
z
" transform="scale(0.015625)"/>
       </defs>
       <use xlink:href="#SimHei-31"/>
       <use xlink:href="#SimHei-30" transform="translate(50 0)"/>
       <use xlink:href="#SimHei-30" transform="translate(100 0)"/>
      </g>
     </g>
    </g>
    <g id="text_7">
     <!-- 时间步 -->
     <g transform="translate(415.8 422.964375) scale(0.18 -0.18)">
      <defs>
       <path id="SimHei-65f6" d="M 2525 4575 
Q 2500 3675 2500 2400 
Q 2500 1125 2525 400 
L 2000 400 
L 2000 875 
L 1000 875 
L 1000 50 
L 475 50 
Q 500 1200 500 2350 
Q 500 3525 475 4575 
L 2525 4575 
z
M 4875 3825 
Q 4875 4575 4850 5225 
L 5400 5225 
Q 5375 4575 5375 3825 
Q 5750 3825 6175 3850 
L 6175 3375 
Q 5750 3400 5375 3400 
L 5375 50 
Q 5375 -325 5075 -425 
Q 4775 -525 4300 -575 
Q 4300 -275 4025 0 
Q 4500 -50 4687 -25 
Q 4875 0 4875 300 
L 4875 3400 
Q 3625 3400 2775 3375 
L 2775 3850 
Q 3575 3825 4875 3825 
z
M 2000 1300 
L 2000 2550 
L 1000 2550 
L 1000 1300 
L 2000 1300 
z
M 2000 2975 
L 2000 4150 
L 1000 4150 
L 1000 2975 
L 2000 2975 
z
M 3550 2725 
Q 3875 2200 4175 1600 
Q 3925 1525 3650 1375 
Q 3450 1975 3075 2500 
Q 3300 2600 3550 2725 
z
" transform="scale(0.015625)"/>
       <path id="SimHei-95f4" d="M 4450 3550 
Q 4425 3075 4425 2725 
L 4425 1400 
Q 4425 1075 4450 625 
L 1925 625 
Q 1950 1075 1950 1425 
L 1950 2725 
Q 1950 3075 1925 3550 
L 4450 3550 
z
M 5800 4875 
Q 5775 4400 5775 3925 
L 5775 250 
Q 5800 -325 5462 -450 
Q 5125 -575 4725 -625 
Q 4700 -325 4525 -25 
Q 5000 -50 5137 25 
Q 5275 100 5275 350 
L 5275 4450 
L 3775 4450 
Q 3175 4450 2650 4425 
L 2650 4900 
Q 3175 4875 3775 4875 
L 5800 4875 
z
M 550 -525 
Q 600 -25 600 525 
L 600 3150 
Q 600 3675 550 4025 
L 1125 4025 
Q 1100 3650 1100 3300 
L 1100 500 
Q 1100 0 1125 -525 
L 550 -525 
z
M 3950 1025 
L 3950 1950 
L 2425 1950 
L 2425 1025 
L 3950 1025 
z
M 3950 2350 
L 3950 3150 
L 2425 3150 
L 2425 2350 
L 3950 2350 
z
M 1525 5300 
Q 1750 5000 2225 4350 
Q 1950 4225 1700 4075 
Q 1450 4575 1075 5025 
Q 1350 5225 1525 5300 
z
" transform="scale(0.015625)"/>
       <path id="SimHei-6b65" d="M 4800 4250 
Q 5150 4250 5550 4275 
L 5550 3825 
Q 5150 3850 4800 3850 
L 3700 3850 
L 3700 3000 
L 5125 3000 
Q 5675 3000 6100 3025 
L 6100 2550 
Q 5675 2575 5125 2575 
L 1475 2575 
Q 1050 2575 475 2525 
L 475 3025 
Q 1050 3000 1475 3000 
L 1725 3000 
L 1725 3775 
Q 1725 4225 1700 4500 
L 2225 4500 
Q 2200 4175 2200 3775 
L 2200 3000 
L 3225 3000 
Q 3225 4750 3200 5100 
L 3725 5100 
Q 3700 4750 3700 4250 
L 4800 4250 
z
M 3725 2400 
Q 3700 1975 3700 1600 
L 3700 450 
Q 4250 750 4725 1225 
Q 5200 1700 5400 2050 
Q 5650 1825 5900 1700 
Q 5675 1475 5362 1150 
Q 5050 825 4537 437 
Q 4025 50 3212 -225 
Q 2400 -500 800 -650 
Q 725 -400 500 -150 
Q 1275 -150 2100 -25 
Q 2925 100 3225 275 
L 3225 1600 
Q 3225 1975 3200 2400 
L 3725 2400 
z
M 2600 1875 
Q 2275 1600 1975 1275 
Q 1675 950 1075 400 
Q 875 600 700 725 
Q 1175 1075 1562 1512 
Q 1950 1950 2125 2200 
Q 2325 2025 2600 1875 
z
" transform="scale(0.015625)"/>
      </defs>
      <use xlink:href="#SimHei-65f6"/>
      <use xlink:href="#SimHei-95f4" transform="translate(100 0)"/>
      <use xlink:href="#SimHei-6b65" transform="translate(200 0)"/>
     </g>
    </g>
   </g>
   <g id="matplotlib.axis_2">
    <g id="ytick_1">
     <g id="line2d_13">
      <path d="M 108 338.157786 
L 777.6 338.157786 
" clip-path="url(#p3629eef627)" style="fill: none; stroke: #b0b0b0; stroke-width: 0.8; stroke-linecap: square"/>
     </g>
     <g id="line2d_14">
      <defs>
       <path id="mfe6406b2cd" d="M 0 0 
L -3.5 0 
" style="stroke: #000000; stroke-width: 0.8"/>
      </defs>
      <g>
       <use xlink:href="#mfe6406b2cd" x="108" y="338.157786" style="stroke: #000000; stroke-width: 0.8"/>
      </g>
     </g>
     <g id="text_8">
      <!-- -2 -->
      <g transform="translate(85 343.657786) scale(0.16 -0.16)">
       <defs>
        <path id="SimHei-2d" d="M 2975 2125 
L 125 2125 
L 125 2525 
L 2975 2525 
L 2975 2125 
z
" transform="scale(0.015625)"/>
       </defs>
       <use xlink:href="#SimHei-2d"/>
       <use xlink:href="#SimHei-32" transform="translate(50 0)"/>
      </g>
     </g>
    </g>
    <g id="ytick_2">
     <g id="line2d_15">
      <path d="M 108 277.891612 
L 777.6 277.891612 
" clip-path="url(#p3629eef627)" style="fill: none; stroke: #b0b0b0; stroke-width: 0.8; stroke-linecap: square"/>
     </g>
     <g id="line2d_16">
      <g>
       <use xlink:href="#mfe6406b2cd" x="108" y="277.891612" style="stroke: #000000; stroke-width: 0.8"/>
      </g>
     </g>
     <g id="text_9">
      <!-- 0 -->
      <g transform="translate(93 283.391612) scale(0.16 -0.16)">
       <use xlink:href="#SimHei-30"/>
      </g>
     </g>
    </g>
    <g id="ytick_3">
     <g id="line2d_17">
      <path d="M 108 217.625437 
L 777.6 217.625437 
" clip-path="url(#p3629eef627)" style="fill: none; stroke: #b0b0b0; stroke-width: 0.8; stroke-linecap: square"/>
     </g>
     <g id="line2d_18">
      <g>
       <use xlink:href="#mfe6406b2cd" x="108" y="217.625437" style="stroke: #000000; stroke-width: 0.8"/>
      </g>
     </g>
     <g id="text_10">
      <!-- 2 -->
      <g transform="translate(93 223.125437) scale(0.16 -0.16)">
       <use xlink:href="#SimHei-32"/>
      </g>
     </g>
    </g>
    <g id="ytick_4">
     <g id="line2d_19">
      <path d="M 108 157.359262 
L 777.6 157.359262 
" clip-path="url(#p3629eef627)" style="fill: none; stroke: #b0b0b0; stroke-width: 0.8; stroke-linecap: square"/>
     </g>
     <g id="line2d_20">
      <g>
       <use xlink:href="#mfe6406b2cd" x="108" y="157.359262" style="stroke: #000000; stroke-width: 0.8"/>
      </g>
     </g>
     <g id="text_11">
      <!-- 4 -->
      <g transform="translate(93 162.859262) scale(0.16 -0.16)">
       <use xlink:href="#SimHei-34"/>
      </g>
     </g>
    </g>
    <g id="ytick_5">
     <g id="line2d_21">
      <path d="M 108 97.093087 
L 777.6 97.093087 
" clip-path="url(#p3629eef627)" style="fill: none; stroke: #b0b0b0; stroke-width: 0.8; stroke-linecap: square"/>
     </g>
     <g id="line2d_22">
      <g>
       <use xlink:href="#mfe6406b2cd" x="108" y="97.093087" style="stroke: #000000; stroke-width: 0.8"/>
      </g>
     </g>
     <g id="text_12">
      <!-- 6 -->
      <g transform="translate(93 102.593087) scale(0.16 -0.16)">
       <use xlink:href="#SimHei-36"/>
      </g>
     </g>
    </g>
    <g id="text_13">
     <!-- 倾斜角(度) -->
     <g transform="translate(78.75 263.16) rotate(-90) scale(0.18 -0.18)">
      <defs>
       <path id="SimHei-503e" d="M 5375 800 
L 5375 3250 
L 3925 3250 
L 3925 650 
L 3450 625 
Q 3475 1125 3475 2200 
Q 3475 3275 3425 3650 
L 4175 3650 
Q 4300 4150 4350 4450 
L 4000 4450 
Q 3450 4450 3150 4425 
L 3150 4875 
Q 3475 4850 3975 4850 
L 5375 4850 
Q 5800 4850 6000 4875 
L 6000 4425 
Q 5800 4450 5375 4450 
L 4850 4450 
Q 4750 4075 4650 3650 
L 5850 3650 
Q 5825 3250 5825 2150 
Q 5825 1050 5850 800 
L 5375 800 
z
M 250 2825 
Q 700 3475 1025 4200 
Q 1350 4925 1400 5250 
Q 1650 5100 1925 5025 
Q 1800 4900 1500 4050 
L 1500 575 
Q 1500 -175 1525 -650 
L 1025 -650 
Q 1050 -175 1050 575 
L 1050 3275 
Q 950 3050 575 2475 
Q 425 2700 250 2825 
z
M 3100 1600 
Q 3150 1425 3275 1150 
Q 2525 625 2150 275 
Q 2025 525 1850 725 
Q 2025 875 2050 1125 
L 2050 3600 
Q 2050 4075 2025 4400 
L 2525 4400 
Q 2500 4075 2500 3425 
L 2500 3150 
Q 2875 3150 3200 3175 
L 3200 2725 
Q 2900 2750 2500 2750 
L 2500 1125 
Q 2675 1250 3100 1600 
z
M 4950 2775 
Q 4875 1975 4812 1362 
Q 4750 750 4450 250 
Q 4150 -250 3350 -700 
Q 3200 -500 2900 -350 
Q 4200 200 4312 1225 
Q 4425 2250 4425 2875 
Q 4675 2775 4950 2775 
z
M 6150 -275 
Q 5975 -400 5750 -650 
Q 5425 -200 4850 400 
Q 5000 525 5150 725 
L 6150 -275 
z
" transform="scale(0.015625)"/>
       <path id="SimHei-659c" d="M 2150 4750 
Q 3100 4150 3450 3875 
Q 3250 3700 3075 3475 
Q 2575 3950 1900 4450 
Q 1575 3925 1175 3475 
L 2900 3475 
L 2900 3075 
L 2175 3075 
L 2175 2300 
Q 2925 2300 3175 2325 
L 3175 1875 
Q 2850 1900 2175 1900 
L 2175 0 
Q 2175 -475 1300 -550 
Q 1225 -300 1075 0 
Q 1725 -50 1725 200 
L 1725 1900 
Q 875 1900 500 1875 
L 500 2325 
Q 875 2300 1725 2300 
L 1725 3075 
L 1075 3075 
L 1075 3375 
Q 825 3100 625 2900 
Q 400 3125 200 3275 
Q 550 3475 1025 4050 
Q 1500 4625 1750 5225 
Q 2050 5075 2350 4975 
L 2150 4750 
z
M 5400 5150 
Q 5375 4800 5375 4275 
L 5375 1650 
Q 5550 1675 6125 1775 
L 6175 1300 
Q 5950 1300 5375 1200 
L 5375 475 
Q 5375 0 5400 -600 
L 4900 -600 
Q 4925 0 4925 1125 
Q 3900 1000 3425 900 
Q 3375 1125 3300 1350 
Q 3775 1425 4925 1575 
L 4925 4275 
Q 4925 4750 4900 5150 
L 5400 5150 
z
M 775 125 
Q 575 225 325 300 
Q 625 775 875 1500 
L 1375 1300 
Q 1225 1100 1075 750 
Q 925 400 775 125 
z
M 3875 4675 
Q 4325 4200 4675 3775 
Q 4450 3600 4275 3425 
Q 3925 3950 3550 4375 
Q 3700 4525 3875 4675 
z
M 2850 1400 
Q 3150 900 3375 375 
Q 3150 275 2925 150 
Q 2725 675 2450 1175 
Q 2625 1300 2850 1400 
z
M 3700 3050 
Q 4125 2600 4475 2175 
Q 4250 2000 4100 1825 
Q 3750 2350 3375 2750 
Q 3500 2875 3700 3050 
z
" transform="scale(0.015625)"/>
       <path id="SimHei-89d2" d="M 3125 900 
L 1625 900 
Q 1475 125 875 -625 
Q 650 -400 400 -300 
Q 775 50 975 475 
Q 1175 900 1250 1575 
Q 1325 2250 1300 3325 
Q 1100 3125 825 2925 
Q 700 3125 425 3325 
Q 650 3425 1075 3737 
Q 1500 4050 1850 4512 
Q 2200 4975 2350 5275 
Q 2550 5125 2825 5000 
Q 2700 4875 2425 4525 
L 4825 4525 
Q 4700 4375 4050 3475 
L 5600 3475 
Q 5575 2925 5575 2500 
L 5575 25 
Q 5575 -350 5325 -450 
Q 5075 -550 4575 -600 
Q 4500 -325 4325 -50 
Q 4825 -50 4975 0 
Q 5125 50 5100 325 
L 5100 900 
L 3600 900 
L 3600 400 
Q 3600 25 3625 -500 
L 3075 -500 
Q 3125 0 3125 500 
L 3125 900 
z
M 3525 3475 
L 3975 4125 
L 2150 4125 
Q 1825 3775 1475 3475 
L 3525 3475 
z
M 5100 1300 
L 5100 2000 
L 3600 2000 
L 3600 1300 
L 5100 1300 
z
M 5100 2400 
L 5100 3050 
L 3600 3050 
L 3600 2400 
L 5100 2400 
z
M 3125 1300 
L 3125 2000 
L 1750 2000 
Q 1750 1625 1700 1300 
L 3125 1300 
z
M 3125 2400 
L 3125 3050 
L 1775 3050 
L 1775 2400 
L 3125 2400 
z
" transform="scale(0.015625)"/>
       <path id="SimHei-28" d="M 2975 -200 
L 2700 -475 
Q 2075 125 1762 775 
Q 1450 1425 1450 2250 
Q 1450 3075 1762 3725 
Q 2075 4375 2700 5000 
L 2975 4725 
Q 2400 4175 2112 3587 
Q 1825 3000 1825 2250 
Q 1825 1500 2112 912 
Q 2400 325 2975 -200 
z
" transform="scale(0.015625)"/>
       <path id="SimHei-5ea6" d="M 1750 1675 
Q 2450 1650 2875 1650 
L 5200 1650 
Q 4975 1250 4650 850 
Q 4325 450 4025 200 
Q 4350 50 4950 -50 
Q 5550 -150 6100 -150 
Q 5950 -300 5825 -650 
Q 5100 -550 4550 -412 
Q 4000 -275 3625 -100 
Q 3100 -325 2587 -462 
Q 2075 -600 1525 -675 
Q 1450 -475 1225 -250 
Q 1675 -250 2250 -125 
Q 2825 0 3250 200 
Q 2825 550 2400 1275 
L 1750 1250 
L 1750 1675 
z
M 2975 5075 
Q 3250 5150 3475 5250 
Q 3625 4975 3775 4525 
L 4700 4525 
Q 4975 4525 5700 4550 
L 5700 4100 
Q 5000 4125 4650 4125 
L 1375 4125 
Q 1375 3000 1350 2312 
Q 1325 1625 1212 950 
Q 1100 275 725 -525 
Q 500 -375 250 -300 
Q 650 400 762 1075 
Q 875 1750 887 2800 
Q 900 3850 875 4525 
L 3200 4525 
Q 3100 4850 2975 5075 
z
M 2475 3300 
Q 2475 3700 2450 3925 
L 2975 3925 
Q 2950 3725 2950 3300 
L 4300 3300 
Q 4300 3700 4275 3950 
L 4800 3950 
Q 4775 3650 4775 3300 
Q 5325 3300 5725 3325 
L 5725 2900 
Q 5350 2925 4775 2925 
Q 4775 2250 4800 1950 
L 2450 1950 
Q 2475 2350 2475 2925 
Q 2175 2925 1600 2900 
L 1600 3325 
Q 2175 3300 2475 3300 
z
M 4300 2350 
L 4300 2925 
L 2950 2925 
L 2950 2350 
L 4300 2350 
z
M 2875 1275 
Q 3200 775 3650 425 
Q 4025 700 4425 1275 
L 2900 1275 
L 2875 1275 
z
" transform="scale(0.015625)"/>
       <path id="SimHei-29" d="M 1675 2250 
Q 1675 1425 1362 775 
Q 1050 125 425 -475 
L 150 -200 
Q 725 325 1012 912 
Q 1300 1500 1300 2250 
Q 1300 3000 1012 3587 
Q 725 4175 150 4725 
L 425 5000 
Q 1050 4375 1362 3725 
Q 1675 3075 1675 2250 
z
" transform="scale(0.015625)"/>
      </defs>
      <use xlink:href="#SimHei-503e"/>
      <use xlink:href="#SimHei-659c" transform="translate(100 0)"/>
      <use xlink:href="#SimHei-89d2" transform="translate(200 0)"/>
      <use xlink:href="#SimHei-28" transform="translate(300 0)"/>
      <use xlink:href="#SimHei-5ea6" transform="translate(350 0)"/>
      <use xlink:href="#SimHei-29" transform="translate(450 0)"/>
     </g>
    </g>
   </g>
   <g id="line2d_23">
    <path d="M 138.436364 187.492349 
L 144.585124 187.492349 
L 150.733884 312.309606 
L 156.882645 305.628658 
L 163.031405 290.62386 
L 169.180165 275.944929 
L 175.328926 262.385635 
L 181.477686 250.831472 
L 187.626446 249.329599 
L 193.775207 256.442803 
L 199.923967 269.68768 
L 206.072727 278.930871 
L 212.221488 283.729841 
L 218.370248 283.935333 
L 224.519008 279.729173 
L 230.667769 279.085128 
L 236.816529 280.403824 
L 242.965289 282.194594 
L 249.11405 283.117958 
L 255.26281 282.058573 
L 261.41157 278.168103 
L 267.560331 278.654848 
L 279.857851 283.878836 
L 286.006612 284.841688 
L 292.155372 282.761861 
L 298.304132 276.669257 
L 304.452893 273.117475 
L 310.601653 270.69494 
L 316.750413 268.124518 
L 322.899174 271.936128 
L 329.047934 279.267536 
L 335.196694 287.305627 
L 341.345455 293.589586 
L 347.494215 296.103823 
L 353.642975 293.311814 
L 359.791736 284.341609 
L 365.940496 275.568007 
L 372.089256 266.392695 
L 378.238017 263.755712 
L 384.386777 265.901004 
L 390.535537 270.750468 
L 396.684298 276.124545 
L 402.833058 280.073559 
L 408.981818 281.019611 
L 415.130579 277.751247 
L 421.279339 276.821876 
L 427.428099 276.38557 
L 433.57686 274.892217 
L 439.72562 271.005938 
L 445.87438 271.077328 
L 458.171901 275.065349 
L 464.320661 275.264336 
L 470.469421 280.108003 
L 476.618182 286.546615 
L 482.766942 291.8699 
L 488.915702 293.827929 
L 495.064463 290.744007 
L 513.510744 263.568295 
L 519.659504 260.766973 
L 525.808264 262.793202 
L 531.957025 267.602235 
L 538.105785 273.00474 
L 544.254545 277.040841 
L 550.403306 278.12048 
L 556.552066 282.929718 
L 562.700826 288.624172 
L 568.849587 292.727115 
L 574.998347 293.216317 
L 581.147107 288.65337 
L 587.295868 285.93376 
L 593.444628 282.6744 
L 599.593388 277.465703 
L 605.742149 269.399812 
L 611.890909 264.87295 
L 618.039669 262.743421 
L 624.18843 261.554484 
L 630.33719 267.569618 
L 636.48595 277.687168 
L 642.634711 288.779695 
L 648.783471 298.214482 
L 654.932231 303.880169 
L 661.080992 303.996398 
L 667.229752 297.219449 
L 673.378512 283.194338 
L 679.527273 268.441531 
L 685.676033 261.116924 
L 691.824793 260.034263 
L 697.973554 263.627291 
L 704.122314 269.828571 
L 710.271074 276.523149 
L 716.419835 281.876196 
L 722.568595 284.43259 
L 728.717355 283.095571 
L 734.866116 277.075924 
L 741.014876 273.144698 
L 747.163636 270.085895 
L 747.163636 270.085895 
" clip-path="url(#p3629eef627)" style="fill: none; stroke: #ff0000; stroke-width: 1.5; stroke-linecap: square"/>
   </g>
   <g id="line2d_24">
    <path d="M 138.436364 127.226175 
L 144.585124 127.226175 
L 150.733884 369.36 
L 156.882645 332.025334 
L 163.031405 302.842477 
L 169.180165 272.787044 
L 175.328926 248.424655 
L 181.477686 232.749466 
L 187.626446 227.296913 
L 193.775207 231.536028 
L 199.923967 244.535107 
L 206.072727 264.924575 
L 212.221488 283.252848 
L 218.370248 297.926903 
L 224.519008 307.335359 
L 230.667769 310.834028 
L 236.816529 308.405097 
L 242.965289 299.844798 
L 249.11405 285.393721 
L 255.26281 273.000122 
L 261.41157 262.637883 
L 267.560331 254.514546 
L 273.709091 256.037819 
L 279.857851 264.990138 
L 286.006612 278.518603 
L 292.155372 286.209986 
L 298.304132 287.624158 
L 304.452893 282.898176 
L 310.601653 279.687079 
L 316.750413 276.796545 
L 322.899174 273.30913 
L 329.047934 268.41609 
L 335.196694 268.993906 
L 341.345455 273.013037 
L 347.494215 278.32685 
L 353.642975 282.929792 
L 359.791736 285.140018 
L 365.940496 283.657686 
L 372.089256 277.55423 
L 378.238017 273.418356 
L 384.386777 270.000483 
L 390.535537 266.162444 
L 396.684298 268.377784 
L 402.833058 274.188069 
L 408.981818 281.041638 
L 415.130579 286.628125 
L 421.279339 289.058169 
L 427.428099 286.911862 
L 433.57686 287.120882 
L 439.72562 287.024493 
L 445.87438 284.705201 
L 452.02314 278.910494 
L 458.171901 276.115301 
L 464.320661 274.428253 
L 470.469421 272.350402 
L 476.618182 268.519771 
L 482.766942 269.232807 
L 488.915702 272.360199 
L 495.064463 275.763176 
L 501.213223 277.510279 
L 507.361983 276.003462 
L 513.510744 277.554676 
L 519.659504 279.811818 
L 525.808264 280.751726 
L 531.957025 278.741233 
L 538.105785 280.154236 
L 544.254545 282.364012 
L 550.403306 283.201039 
L 556.552066 280.975671 
L 562.700826 282.198683 
L 568.849587 284.081473 
L 574.998347 284.402372 
L 581.147107 281.493348 
L 587.295868 281.865707 
L 593.444628 282.82698 
L 599.593388 282.293652 
L 605.742149 278.711317 
L 611.890909 278.409932 
L 618.039669 278.995704 
L 624.18843 278.541699 
L 630.33719 275.495302 
L 636.48595 276.077492 
L 642.634711 277.913225 
L 648.783471 278.944419 
L 654.932231 277.456795 
L 661.080992 279.768608 
L 667.229752 283.108184 
L 673.378512 285.122713 
L 679.527273 283.95166 
L 685.676033 278.258797 
L 691.824793 274.166202 
L 697.973554 270.272603 
L 704.122314 265.353047 
L 710.271074 265.646037 
L 716.419835 269.087682 
L 722.568595 273.447257 
L 728.717355 276.635534 
L 734.866116 276.902007 
L 741.014876 280.608758 
L 747.163636 285.006278 
L 747.163636 285.006278 
" clip-path="url(#p3629eef627)" style="fill: none; stroke: #008000; stroke-width: 1.5; stroke-linecap: square"/>
   </g>
   <g id="line2d_25">
    <path d="M 138.436364 66.96 
L 144.585124 66.96 
L 150.733884 339.950101 
L 156.882645 313.049563 
L 163.031405 302.092484 
L 175.328926 265.088863 
L 181.477686 248.191456 
L 187.626446 241.11031 
L 193.775207 243.620626 
L 199.923967 253.672658 
L 206.072727 268.925343 
L 212.221488 287.024511 
L 218.370248 298.131176 
L 224.519008 301.277543 
L 230.667769 296.756296 
L 236.816529 285.096686 
L 242.965289 273.818218 
L 249.11405 263.074122 
L 255.26281 260.610412 
L 261.41157 264.773994 
L 267.560331 273.250917 
L 273.709091 283.608976 
L 279.857851 293.741039 
L 286.006612 301.886313 
L 292.155372 306.626708 
L 298.304132 306.68504 
L 304.452893 300.846367 
L 310.601653 288.60138 
L 316.750413 277.273323 
L 322.899174 266.411979 
L 329.047934 256.113792 
L 335.196694 253.561406 
L 341.345455 257.446488 
L 347.494215 265.547948 
L 353.642975 275.435274 
L 359.791736 284.94875 
L 365.940496 292.261438 
L 372.089256 296.005507 
L 378.238017 295.16597 
L 384.386777 289.041939 
L 390.535537 277.415577 
L 396.684298 267.182866 
L 402.833058 258.298568 
L 408.981818 257.882954 
L 415.130579 263.991345 
L 421.279339 273.942191 
L 427.428099 285.093383 
L 433.57686 295.187266 
L 439.72562 302.386033 
L 445.87438 305.25692 
L 452.02314 302.501947 
L 458.171901 293.256776 
L 464.320661 285.116139 
L 470.469421 276.518451 
L 476.618182 267.102153 
L 482.766942 263.968701 
L 488.915702 265.575977 
L 495.064463 270.032396 
L 501.213223 275.305112 
L 507.361983 279.543138 
L 513.510744 281.228267 
L 519.659504 279.187507 
L 525.808264 280.215007 
L 531.957025 282.049806 
L 538.105785 282.784467 
L 544.254545 280.903473 
L 550.403306 275.276538 
L 556.552066 272.31148 
L 562.700826 270.499973 
L 568.849587 268.435743 
L 574.998347 272.530651 
L 581.147107 279.870003 
L 587.295868 287.625624 
L 593.444628 293.340777 
L 599.593388 295.02137 
L 605.742149 291.205391 
L 624.18843 260.787435 
L 630.33719 257.107792 
L 636.48595 258.745929 
L 642.634711 263.743602 
L 648.783471 269.901469 
L 654.932231 275.222256 
L 661.080992 278.080521 
L 667.229752 277.210767 
L 673.378512 279.357441 
L 679.527273 282.226961 
L 685.676033 283.830774 
L 691.824793 282.574697 
L 697.973554 277.285443 
L 704.122314 274.351055 
L 710.271074 272.195376 
L 716.419835 269.457048 
L 722.568595 272.563114 
L 728.717355 278.73968 
L 734.866116 285.301067 
L 741.014876 289.897558 
L 747.163636 290.64417 
L 747.163636 290.64417 
" clip-path="url(#p3629eef627)" style="fill: none; stroke: #0000ff; stroke-width: 1.5; stroke-linecap: square"/>
   </g>
   <g id="patch_3">
    <path d="M 108 384.48 
L 108 51.84 
" style="fill: none; stroke: #000000; stroke-width: 0.8; stroke-linejoin: miter; stroke-linecap: square"/>
   </g>
   <g id="patch_4">
    <path d="M 777.6 384.48 
L 777.6 51.84 
" style="fill: none; stroke: #000000; stroke-width: 0.8; stroke-linejoin: miter; stroke-linecap: square"/>
   </g>
   <g id="patch_5">
    <path d="M 108 384.48 
L 777.6 384.48 
" style="fill: none; stroke: #000000; stroke-width: 0.8; stroke-linejoin: miter; stroke-linecap: square"/>
   </g>
   <g id="patch_6">
    <path d="M 108 51.84 
L 777.6 51.84 
" style="fill: none; stroke: #000000; stroke-width: 0.8; stroke-linejoin: miter; stroke-linecap: square"/>
   </g>
   <g id="legend_1">
    <g id="patch_7">
     <path d="M 696.6 128.000156 
L 767.1 128.000156 
Q 770.1 128.000156 770.1 125.000156 
L 770.1 62.34 
Q 770.1 59.34 767.1 59.34 
L 696.6 59.34 
Q 693.6 59.34 693.6 62.34 
L 693.6 125.000156 
Q 693.6 128.000156 696.6 128.000156 
z
" style="fill: #ffffff; opacity: 0.8; stroke: #cccccc; stroke-linejoin: miter"/>
    </g>
    <g id="line2d_26">
     <path d="M 699.6 72.101719 
L 714.6 72.101719 
L 729.6 72.101719 
" style="fill: none; stroke: #ff0000; stroke-width: 1.5; stroke-linecap: square"/>
    </g>
    <g id="text_14">
     <!-- 3度 -->
     <g transform="translate(741.6 77.351719) scale(0.15 -0.15)">
      <defs>
       <path id="SimHei-33" d="M 250 1225 
L 700 1300 
Q 800 975 1025 762 
Q 1250 550 1587 562 
Q 1925 575 2125 837 
Q 2325 1100 2300 1437 
Q 2275 1775 2037 1962 
Q 1800 2150 1275 2225 
L 1275 2550 
Q 1800 2600 2037 2825 
Q 2275 3050 2250 3412 
Q 2225 3775 1925 3937 
Q 1625 4100 1287 3975 
Q 950 3850 750 3275 
L 300 3350 
Q 450 3800 712 4100 
Q 975 4400 1425 4450 
Q 1875 4500 2212 4337 
Q 2550 4175 2687 3837 
Q 2825 3500 2725 3100 
Q 2625 2700 2150 2400 
Q 2500 2250 2687 1950 
Q 2875 1650 2812 1162 
Q 2750 675 2375 375 
Q 2000 75 1525 87 
Q 1050 100 700 387 
Q 350 675 250 1225 
z
" transform="scale(0.015625)"/>
      </defs>
      <use xlink:href="#SimHei-33"/>
      <use xlink:href="#SimHei-5ea6" transform="translate(50 0)"/>
     </g>
    </g>
    <g id="line2d_27">
     <path d="M 699.6 93.488437 
L 714.6 93.488437 
L 729.6 93.488437 
" style="fill: none; stroke: #008000; stroke-width: 1.5; stroke-linecap: square"/>
    </g>
    <g id="text_15">
     <!-- 5度 -->
     <g transform="translate(741.6 98.738437) scale(0.15 -0.15)">
      <defs>
       <path id="SimHei-35" d="M 550 1325 
Q 725 650 1150 575 
Q 1575 500 1837 662 
Q 2100 825 2212 1087 
Q 2325 1350 2312 1675 
Q 2300 2000 2137 2225 
Q 1975 2450 1725 2525 
Q 1475 2600 1162 2525 
Q 850 2450 650 2175 
L 225 2225 
Q 275 2375 700 4375 
L 2675 4375 
L 2675 3925 
L 1075 3925 
Q 950 3250 825 2850 
Q 1200 3025 1525 3012 
Q 1850 3000 2150 2862 
Q 2450 2725 2587 2487 
Q 2725 2250 2787 2012 
Q 2850 1775 2837 1500 
Q 2825 1225 2725 937 
Q 2625 650 2425 462 
Q 2225 275 1937 162 
Q 1650 50 1275 75 
Q 900 100 562 350 
Q 225 600 100 1200 
L 550 1325 
z
" transform="scale(0.015625)"/>
      </defs>
      <use xlink:href="#SimHei-35"/>
      <use xlink:href="#SimHei-5ea6" transform="translate(50 0)"/>
     </g>
    </g>
    <g id="line2d_28">
     <path d="M 699.6 114.875156 
L 714.6 114.875156 
L 729.6 114.875156 
" style="fill: none; stroke: #0000ff; stroke-width: 1.5; stroke-linecap: square"/>
    </g>
    <g id="text_16">
     <!-- 7度 -->
     <g transform="translate(741.6 120.125156) scale(0.15 -0.15)">
      <defs>
       <path id="SimHei-37" d="M 850 150 
Q 1300 2050 2425 3925 
L 275 3925 
L 275 4375 
L 2950 4375 
L 2950 3950 
Q 1775 2050 1400 150 
L 850 150 
z
" transform="scale(0.015625)"/>
      </defs>
      <use xlink:href="#SimHei-37"/>
      <use xlink:href="#SimHei-5ea6" transform="translate(50 0)"/>
     </g>
    </g>
   </g>
  </g>
 </g>
 <defs>
  <clipPath id="p3629eef627">
   <rect x="108" y="51.84" width="669.6" height="332.64"/>
  </clipPath>
 </defs>
</svg>
