<?xml version="1.0" encoding="utf-8" standalone="no"?>
<!DOCTYPE svg PUBLIC "-//W3C//DTD SVG 1.1//EN"
  "http://www.w3.org/Graphics/SVG/1.1/DTD/svg11.dtd">
<svg xmlns:xlink="http://www.w3.org/1999/xlink" width="460.8pt" height="345.6pt" viewBox="0 0 460.8 345.6" xmlns="http://www.w3.org/2000/svg" version="1.1">
 <metadata>
  <rdf:RDF xmlns:dc="http://purl.org/dc/elements/1.1/" xmlns:cc="http://creativecommons.org/ns#" xmlns:rdf="http://www.w3.org/1999/02/22-rdf-syntax-ns#">
   <cc:Work>
    <dc:type rdf:resource="http://purl.org/dc/dcmitype/StillImage"/>
    <dc:date>2025-03-10T13:31:00.380429</dc:date>
    <dc:format>image/svg+xml</dc:format>
    <dc:creator>
     <cc:Agent>
      <dc:title>Matplotlib v3.10.0, https://matplotlib.org/</dc:title>
     </cc:Agent>
    </dc:creator>
   </cc:Work>
  </rdf:RDF>
 </metadata>
 <defs>
  <style type="text/css">*{stroke-linejoin: round; stroke-linecap: butt}</style>
 </defs>
 <g id="figure_1">
  <g id="patch_1">
   <path d="M 0 345.6 
L 460.8 345.6 
L 460.8 0 
L 0 0 
z
" style="fill: #ffffff"/>
  </g>
  <g id="axes_1">
   <g id="patch_2">
    <path d="M 57.6 307.584 
L 414.72 307.584 
L 414.72 41.472 
L 57.6 41.472 
z
" style="fill: #ffffff"/>
   </g>
   <g id="matplotlib.axis_1">
    <g id="xtick_1">
     <g id="line2d_1">
      <path d="M 73.832727 307.584 
L 73.832727 41.472 
" clip-path="url(#p366bd25eb2)" style="fill: none; stroke: #b0b0b0; stroke-width: 0.8; stroke-linecap: square"/>
     </g>
     <g id="line2d_2">
      <defs>
       <path id="mee1a976f11" d="M 0 0 
L 0 3.5 
" style="stroke: #000000; stroke-width: 0.8"/>
      </defs>
      <g>
       <use xlink:href="#mee1a976f11" x="73.832727" y="307.584" style="stroke: #000000; stroke-width: 0.8"/>
      </g>
     </g>
     <g id="text_1">
      <!-- 600 -->
      <g transform="translate(61.832727 326.0215) scale(0.16 -0.16)">
       <defs>
        <path id="SimSun-36" d="M 775 1800 
Q 775 1050 1037 637 
Q 1300 225 1675 225 
Q 2050 225 2250 500 
Q 2450 775 2450 1525 
Q 2450 2025 2237 2300 
Q 2025 2575 1725 2575 
Q 1450 2575 1212 2412 
Q 975 2250 775 1800 
z
M 1750 2825 
Q 2350 2825 2612 2425 
Q 2875 2025 2875 1525 
Q 2875 775 2512 412 
Q 2150 50 1675 50 
Q 1000 50 650 562 
Q 300 1075 300 2050 
Q 300 3200 725 3812 
Q 1150 4425 1875 4425 
Q 2225 4425 2437 4225 
Q 2650 4025 2650 3875 
Q 2650 3725 2587 3650 
Q 2525 3575 2375 3575 
Q 2250 3575 2187 3637 
Q 2125 3700 2125 3825 
Q 2125 3875 2150 3925 
Q 2150 3975 2150 4025 
Q 2150 4125 2075 4187 
Q 2000 4250 1800 4250 
Q 1375 4250 1075 3862 
Q 775 3475 775 2175 
Q 925 2500 1187 2662 
Q 1450 2825 1750 2825 
z
" transform="scale(0.015625)"/>
        <path id="SimSun-30" d="M 1600 4225 
Q 1250 4225 1012 3687 
Q 775 3150 775 2250 
Q 775 1300 1012 775 
Q 1250 250 1600 250 
Q 1975 250 2187 775 
Q 2400 1300 2400 2250 
Q 2400 3150 2200 3687 
Q 2000 4225 1600 4225 
z
M 1600 50 
Q 1050 50 675 625 
Q 300 1200 300 2250 
Q 300 3225 662 3825 
Q 1025 4425 1600 4425 
Q 2150 4425 2512 3850 
Q 2875 3275 2875 2250 
Q 2875 1225 2512 637 
Q 2150 50 1600 50 
z
" transform="scale(0.015625)"/>
       </defs>
       <use xlink:href="#SimSun-36"/>
       <use xlink:href="#SimSun-30" transform="translate(50 0)"/>
       <use xlink:href="#SimSun-30" transform="translate(100 0)"/>
      </g>
     </g>
    </g>
    <g id="xtick_2">
     <g id="line2d_3">
      <path d="M 128.122785 307.584 
L 128.122785 41.472 
" clip-path="url(#p366bd25eb2)" style="fill: none; stroke: #b0b0b0; stroke-width: 0.8; stroke-linecap: square"/>
     </g>
     <g id="line2d_4">
      <g>
       <use xlink:href="#mee1a976f11" x="128.122785" y="307.584" style="stroke: #000000; stroke-width: 0.8"/>
      </g>
     </g>
     <g id="text_2">
      <!-- 650 -->
      <g transform="translate(116.122785 326.0215) scale(0.16 -0.16)">
       <defs>
        <path id="SimSun-35" d="M 1725 2850 
Q 2200 2850 2500 2487 
Q 2800 2125 2800 1525 
Q 2800 850 2487 450 
Q 2175 50 1525 50 
Q 1075 50 725 312 
Q 375 575 375 950 
Q 375 1100 462 1212 
Q 550 1325 700 1325 
Q 850 1325 900 1225 
Q 950 1125 950 1050 
Q 950 900 875 825 
Q 800 725 800 625 
Q 800 425 1037 325 
Q 1275 225 1550 225 
Q 1950 225 2162 550 
Q 2375 875 2375 1475 
Q 2375 1975 2187 2287 
Q 2000 2600 1625 2600 
Q 1350 2600 1150 2500 
Q 950 2400 775 2075 
L 550 2100 
L 675 4375 
L 2725 4375 
L 2650 4000 
L 850 4000 
L 750 2350 
Q 1000 2700 1237 2775 
Q 1475 2850 1725 2850 
z
" transform="scale(0.015625)"/>
       </defs>
       <use xlink:href="#SimSun-36"/>
       <use xlink:href="#SimSun-35" transform="translate(50 0)"/>
       <use xlink:href="#SimSun-30" transform="translate(100 0)"/>
      </g>
     </g>
    </g>
    <g id="xtick_3">
     <g id="line2d_5">
      <path d="M 182.412843 307.584 
L 182.412843 41.472 
" clip-path="url(#p366bd25eb2)" style="fill: none; stroke: #b0b0b0; stroke-width: 0.8; stroke-linecap: square"/>
     </g>
     <g id="line2d_6">
      <g>
       <use xlink:href="#mee1a976f11" x="182.412843" y="307.584" style="stroke: #000000; stroke-width: 0.8"/>
      </g>
     </g>
     <g id="text_3">
      <!-- 700 -->
      <g transform="translate(170.412843 326.0215) scale(0.16 -0.16)">
       <defs>
        <path id="SimSun-37" d="M 2825 4200 
Q 2300 3350 1987 2537 
Q 1675 1725 1675 1125 
Q 1675 1025 1700 850 
Q 1700 650 1700 400 
Q 1700 200 1637 125 
Q 1575 50 1425 50 
Q 1300 50 1212 137 
Q 1125 225 1125 450 
Q 1125 925 1337 1625 
Q 1550 2325 2475 4000 
L 1225 4000 
Q 950 4000 787 3825 
Q 625 3650 550 3300 
L 400 3325 
L 575 4375 
L 2825 4375 
L 2825 4200 
z
" transform="scale(0.015625)"/>
       </defs>
       <use xlink:href="#SimSun-37"/>
       <use xlink:href="#SimSun-30" transform="translate(50 0)"/>
       <use xlink:href="#SimSun-30" transform="translate(100 0)"/>
      </g>
     </g>
    </g>
    <g id="xtick_4">
     <g id="line2d_7">
      <path d="M 236.702901 307.584 
L 236.702901 41.472 
" clip-path="url(#p366bd25eb2)" style="fill: none; stroke: #b0b0b0; stroke-width: 0.8; stroke-linecap: square"/>
     </g>
     <g id="line2d_8">
      <g>
       <use xlink:href="#mee1a976f11" x="236.702901" y="307.584" style="stroke: #000000; stroke-width: 0.8"/>
      </g>
     </g>
     <g id="text_4">
      <!-- 750 -->
      <g transform="translate(224.702901 326.0215) scale(0.16 -0.16)">
       <use xlink:href="#SimSun-37"/>
       <use xlink:href="#SimSun-35" transform="translate(50 0)"/>
       <use xlink:href="#SimSun-30" transform="translate(100 0)"/>
      </g>
     </g>
    </g>
    <g id="xtick_5">
     <g id="line2d_9">
      <path d="M 290.992958 307.584 
L 290.992958 41.472 
" clip-path="url(#p366bd25eb2)" style="fill: none; stroke: #b0b0b0; stroke-width: 0.8; stroke-linecap: square"/>
     </g>
     <g id="line2d_10">
      <g>
       <use xlink:href="#mee1a976f11" x="290.992958" y="307.584" style="stroke: #000000; stroke-width: 0.8"/>
      </g>
     </g>
     <g id="text_5">
      <!-- 800 -->
      <g transform="translate(278.992958 326.0215) scale(0.16 -0.16)">
       <defs>
        <path id="SimSun-38" d="M 625 1125 
Q 625 725 887 475 
Q 1150 225 1550 225 
Q 2025 225 2237 475 
Q 2450 725 2450 1100 
Q 2450 1425 2150 1725 
Q 1850 2025 1250 2275 
Q 950 2075 787 1775 
Q 625 1475 625 1125 
z
M 2825 1175 
Q 2825 700 2475 375 
Q 2125 50 1550 50 
Q 1025 50 650 375 
Q 275 700 275 1125 
Q 275 1550 487 1850 
Q 700 2150 1100 2375 
Q 750 2550 562 2812 
Q 375 3075 375 3400 
Q 375 3825 700 4125 
Q 1025 4425 1600 4425 
Q 2125 4425 2450 4125 
Q 2775 3825 2775 3400 
Q 2775 3100 2587 2837 
Q 2400 2575 2000 2375 
Q 2425 2125 2625 1825 
Q 2825 1525 2825 1175 
z
M 2425 3375 
Q 2425 3725 2225 3987 
Q 2025 4250 1600 4250 
Q 1125 4250 925 4000 
Q 725 3750 725 3475 
Q 725 3200 1012 2937 
Q 1300 2675 1825 2475 
Q 2125 2625 2275 2850 
Q 2425 3075 2425 3375 
z
" transform="scale(0.015625)"/>
       </defs>
       <use xlink:href="#SimSun-38"/>
       <use xlink:href="#SimSun-30" transform="translate(50 0)"/>
       <use xlink:href="#SimSun-30" transform="translate(100 0)"/>
      </g>
     </g>
    </g>
    <g id="xtick_6">
     <g id="line2d_11">
      <path d="M 345.283016 307.584 
L 345.283016 41.472 
" clip-path="url(#p366bd25eb2)" style="fill: none; stroke: #b0b0b0; stroke-width: 0.8; stroke-linecap: square"/>
     </g>
     <g id="line2d_12">
      <g>
       <use xlink:href="#mee1a976f11" x="345.283016" y="307.584" style="stroke: #000000; stroke-width: 0.8"/>
      </g>
     </g>
     <g id="text_6">
      <!-- 850 -->
      <g transform="translate(333.283016 326.0215) scale(0.16 -0.16)">
       <use xlink:href="#SimSun-38"/>
       <use xlink:href="#SimSun-35" transform="translate(50 0)"/>
       <use xlink:href="#SimSun-30" transform="translate(100 0)"/>
      </g>
     </g>
    </g>
    <g id="xtick_7">
     <g id="line2d_13">
      <path d="M 399.573074 307.584 
L 399.573074 41.472 
" clip-path="url(#p366bd25eb2)" style="fill: none; stroke: #b0b0b0; stroke-width: 0.8; stroke-linecap: square"/>
     </g>
     <g id="line2d_14">
      <g>
       <use xlink:href="#mee1a976f11" x="399.573074" y="307.584" style="stroke: #000000; stroke-width: 0.8"/>
      </g>
     </g>
     <g id="text_7">
      <!-- 900 -->
      <g transform="translate(387.573074 326.0215) scale(0.16 -0.16)">
       <defs>
        <path id="SimSun-39" d="M 700 3050 
Q 700 2500 912 2212 
Q 1125 1925 1450 1925 
Q 1825 1925 2100 2275 
Q 2375 2625 2375 2925 
Q 2375 3525 2175 3887 
Q 1975 4250 1525 4250 
Q 1100 4250 900 3912 
Q 700 3575 700 3050 
z
M 1375 1700 
Q 875 1700 575 2012 
Q 275 2325 275 3025 
Q 275 3625 600 4025 
Q 925 4425 1525 4425 
Q 2150 4425 2500 3925 
Q 2850 3425 2850 2475 
Q 2850 1425 2437 737 
Q 2025 50 1300 50 
Q 975 50 737 200 
Q 500 350 500 600 
Q 500 700 562 800 
Q 625 900 775 900 
Q 925 900 975 787 
Q 1025 675 1025 525 
Q 1025 425 1050 362 
Q 1075 300 1100 275 
Q 1125 250 1187 237 
Q 1250 225 1325 225 
Q 1775 225 2050 725 
Q 2325 1225 2375 2400 
Q 2250 2100 2000 1900 
Q 1750 1700 1375 1700 
z
" transform="scale(0.015625)"/>
       </defs>
       <use xlink:href="#SimSun-39"/>
       <use xlink:href="#SimSun-30" transform="translate(50 0)"/>
       <use xlink:href="#SimSun-30" transform="translate(100 0)"/>
      </g>
     </g>
    </g>
    <g id="text_8">
     <!-- 时间步 -->
     <g transform="translate(213.66 344.037125) scale(0.15 -0.15)">
      <defs>
       <path id="SimSun-65f6" d="M 4500 3600 
Q 4500 4575 4475 5225 
L 5100 4900 
L 4850 4725 
L 4850 3600 
L 5225 3600 
L 5550 3925 
L 6025 3450 
L 4850 3450 
L 4850 100 
Q 4850 -375 4300 -575 
Q 4275 -200 3475 -25 
L 3475 100 
Q 4150 0 4325 25 
Q 4500 50 4500 325 
L 4500 3450 
L 3200 3450 
Q 2875 3450 2600 3375 
L 2375 3600 
L 4500 3600 
z
M 2875 2825 
Q 3525 2375 3637 2200 
Q 3750 2025 3750 1925 
Q 3750 1800 3637 1637 
Q 3525 1475 3475 1475 
Q 3400 1475 3325 1775 
Q 3200 2225 2800 2750 
L 2875 2825 
z
M 925 4150 
L 925 2650 
L 1950 2650 
L 1950 4150 
L 925 4150 
z
M 925 2500 
L 925 900 
L 1950 900 
L 1950 2500 
L 925 2500 
z
M 2300 2000 
Q 2300 800 2325 450 
L 1950 250 
L 1950 750 
L 925 750 
L 925 225 
L 550 25 
Q 575 825 575 2425 
Q 575 4025 550 4500 
L 950 4300 
L 1900 4300 
L 2100 4550 
L 2500 4225 
L 2300 4050 
L 2300 2000 
z
" transform="scale(0.015625)"/>
       <path id="SimSun-95f4" d="M 2150 525 
Q 2175 1325 2175 2112 
Q 2175 2900 2150 3675 
L 2525 3450 
L 3750 3450 
L 4000 3700 
L 4325 3375 
L 4125 3200 
Q 4125 1550 4150 775 
L 3800 575 
L 3800 975 
L 2500 975 
L 2500 700 
L 2150 525 
z
M 2500 3300 
L 2500 2325 
L 3800 2325 
L 3800 3300 
L 2500 3300 
z
M 2500 2175 
L 2500 1125 
L 3800 1125 
L 3800 2175 
L 2500 2175 
z
M 1275 5200 
Q 1850 4825 1950 4675 
Q 2050 4525 2050 4425 
Q 2050 4275 1950 4137 
Q 1850 4000 1825 4000 
Q 1750 4000 1675 4275 
Q 1550 4650 1200 5125 
L 1275 5200 
z
M 1125 425 
Q 1125 25 1150 -375 
L 750 -525 
Q 775 -150 775 1950 
Q 775 4050 750 4425 
L 1350 4125 
L 1125 3975 
L 1125 425 
z
M 4225 125 
Q 5025 0 5125 37 
Q 5225 75 5225 250 
L 5225 4450 
L 3225 4450 
Q 2900 4450 2625 4375 
L 2400 4600 
L 5175 4600 
L 5425 4850 
L 5775 4500 
L 5575 4350 
L 5575 225 
Q 5575 -100 5462 -250 
Q 5350 -400 5000 -550 
Q 4800 -125 4225 25 
L 4225 125 
z
" transform="scale(0.015625)"/>
       <path id="SimSun-6b65" d="M 3125 2975 
Q 3125 4700 3100 5275 
L 3700 5000 
L 3475 4825 
L 3475 4200 
L 4800 4200 
L 5100 4500 
L 5550 4050 
L 3475 4050 
L 3475 2975 
L 5175 2975 
L 5550 3350 
L 6075 2825 
L 1150 2825 
Q 825 2825 550 2750 
L 325 2975 
L 1500 2975 
Q 1500 4225 1475 4650 
L 2075 4375 
L 1850 4200 
L 1850 2975 
L 3125 2975 
z
M 3100 650 
Q 3125 950 3125 1737 
Q 3125 2525 3100 2775 
L 3675 2500 
L 3475 2325 
Q 3475 1175 3500 800 
L 3100 650 
z
M 1850 2300 
L 2350 1925 
L 2075 1825 
Q 1275 750 550 250 
L 500 325 
Q 975 800 1350 1387 
Q 1725 1975 1850 2300 
z
M 5250 2275 
L 5700 1825 
L 5475 1775 
Q 3950 325 2875 -62 
Q 1800 -450 375 -650 
L 375 -550 
Q 1125 -425 2075 -112 
Q 3025 200 3862 837 
Q 4700 1475 5250 2275 
z
" transform="scale(0.015625)"/>
      </defs>
      <use xlink:href="#SimSun-65f6"/>
      <use xlink:href="#SimSun-95f4" transform="translate(100 0)"/>
      <use xlink:href="#SimSun-6b65" transform="translate(200 0)"/>
     </g>
    </g>
   </g>
   <g id="matplotlib.axis_2">
    <g id="ytick_1">
     <g id="line2d_15">
      <path d="M 57.6 260.952923 
L 414.72 260.952923 
" clip-path="url(#p366bd25eb2)" style="fill: none; stroke: #b0b0b0; stroke-width: 0.8; stroke-linecap: square"/>
     </g>
     <g id="line2d_16">
      <defs>
       <path id="m06a72ae0f1" d="M 0 0 
L -3.5 0 
" style="stroke: #000000; stroke-width: 0.8"/>
      </defs>
      <g>
       <use xlink:href="#m06a72ae0f1" x="57.6" y="260.952923" style="stroke: #000000; stroke-width: 0.8"/>
      </g>
     </g>
     <g id="text_9">
      <!-- -2 -->
      <g transform="translate(34.6 266.671673) scale(0.16 -0.16)">
       <defs>
        <path id="SimSun-2d" d="M 200 2225 
L 200 2450 
L 2975 2450 
L 2975 2225 
L 200 2225 
z
" transform="scale(0.015625)"/>
        <path id="SimSun-32" d="M 2325 3325 
Q 2325 3775 2125 4012 
Q 1925 4250 1525 4250 
Q 1225 4250 1012 4087 
Q 800 3925 800 3675 
Q 800 3525 900 3425 
Q 975 3325 975 3225 
Q 975 3100 912 3037 
Q 850 2975 725 2975 
Q 575 2975 487 3062 
Q 400 3150 400 3350 
Q 400 3875 775 4150 
Q 1150 4425 1575 4425 
Q 2175 4425 2462 4125 
Q 2750 3825 2750 3375 
Q 2750 3075 2612 2775 
Q 2475 2475 2175 2200 
Q 1450 1500 1062 1062 
Q 675 625 600 475 
L 2075 475 
Q 2300 475 2450 650 
Q 2600 825 2650 1175 
L 2800 1175 
L 2650 100 
L 325 100 
L 325 425 
Q 450 650 737 1000 
Q 1025 1350 1500 1825 
Q 1925 2250 2125 2625 
Q 2325 3000 2325 3325 
z
" transform="scale(0.015625)"/>
       </defs>
       <use xlink:href="#SimSun-2d"/>
       <use xlink:href="#SimSun-32" transform="translate(50 0)"/>
      </g>
     </g>
    </g>
    <g id="ytick_2">
     <g id="line2d_17">
      <path d="M 57.6 205.218331 
L 414.72 205.218331 
" clip-path="url(#p366bd25eb2)" style="fill: none; stroke: #b0b0b0; stroke-width: 0.8; stroke-linecap: square"/>
     </g>
     <g id="line2d_18">
      <g>
       <use xlink:href="#m06a72ae0f1" x="57.6" y="205.218331" style="stroke: #000000; stroke-width: 0.8"/>
      </g>
     </g>
     <g id="text_10">
      <!-- -1 -->
      <g transform="translate(34.6 210.937081) scale(0.16 -0.16)">
       <defs>
        <path id="SimSun-31" d="M 1825 4450 
L 1825 650 
Q 1825 450 1950 350 
Q 2075 250 2300 250 
L 2550 250 
L 2550 100 
L 725 100 
L 725 250 
L 950 250 
Q 1200 250 1312 350 
Q 1425 450 1425 650 
L 1425 3675 
Q 1425 3775 1362 3837 
Q 1300 3900 1175 3900 
L 725 3900 
L 725 4050 
L 950 4050 
Q 1250 4050 1437 4150 
Q 1625 4250 1725 4450 
L 1825 4450 
z
" transform="scale(0.015625)"/>
       </defs>
       <use xlink:href="#SimSun-2d"/>
       <use xlink:href="#SimSun-31" transform="translate(50 0)"/>
      </g>
     </g>
    </g>
    <g id="ytick_3">
     <g id="line2d_19">
      <path d="M 57.6 149.483738 
L 414.72 149.483738 
" clip-path="url(#p366bd25eb2)" style="fill: none; stroke: #b0b0b0; stroke-width: 0.8; stroke-linecap: square"/>
     </g>
     <g id="line2d_20">
      <g>
       <use xlink:href="#m06a72ae0f1" x="57.6" y="149.483738" style="stroke: #000000; stroke-width: 0.8"/>
      </g>
     </g>
     <g id="text_11">
      <!-- 0 -->
      <g transform="translate(42.6 155.202488) scale(0.16 -0.16)">
       <use xlink:href="#SimSun-30"/>
      </g>
     </g>
    </g>
    <g id="ytick_4">
     <g id="line2d_21">
      <path d="M 57.6 93.749146 
L 414.72 93.749146 
" clip-path="url(#p366bd25eb2)" style="fill: none; stroke: #b0b0b0; stroke-width: 0.8; stroke-linecap: square"/>
     </g>
     <g id="line2d_22">
      <g>
       <use xlink:href="#m06a72ae0f1" x="57.6" y="93.749146" style="stroke: #000000; stroke-width: 0.8"/>
      </g>
     </g>
     <g id="text_12">
      <!-- 1 -->
      <g transform="translate(42.6 99.467896) scale(0.16 -0.16)">
       <use xlink:href="#SimSun-31"/>
      </g>
     </g>
    </g>
    <g id="text_13">
     <!-- 倾斜角(度) -->
     <g transform="translate(28.279687 219.528) rotate(-90) scale(0.18 -0.18)">
      <defs>
       <path id="SimSun-503e" d="M 1900 800 
Q 1975 900 2000 1075 
L 2000 3975 
Q 2000 4150 1975 4400 
L 2550 4125 
L 2325 3975 
L 2325 2800 
L 2600 2800 
L 2825 3025 
L 3200 2650 
L 2325 2650 
L 2325 1050 
L 3100 1550 
L 3150 1450 
Q 2375 775 2200 425 
L 1900 800 
z
M 2325 -550 
Q 3125 -300 3575 62 
Q 4025 425 4175 1025 
Q 4325 1625 4275 3125 
L 4800 2900 
L 4625 2725 
Q 4650 1450 4500 875 
Q 4350 300 3850 -87 
Q 3350 -475 2350 -650 
L 2325 -550 
z
M 4600 725 
Q 5675 275 5850 75 
Q 6025 -125 5975 -337 
Q 5925 -550 5850 -550 
Q 5775 -550 5650 -350 
Q 5400 0 4550 650 
L 4600 725 
z
M 5650 1400 
Q 5650 1275 5675 900 
L 5325 725 
L 5325 3500 
L 3700 3500 
L 3700 850 
L 3350 675 
Q 3375 1125 3375 1500 
L 3375 3000 
Q 3375 3475 3350 3850 
L 3700 3650 
L 4125 3650 
Q 4225 4050 4300 4475 
L 3750 4475 
Q 3425 4475 3150 4400 
L 2925 4625 
L 5400 4625 
L 5700 4925 
L 6150 4475 
L 4725 4475 
Q 4550 4275 4275 3650 
L 5300 3650 
L 5500 3875 
L 5875 3575 
L 5650 3425 
L 5650 1400 
z
M 1600 3500 
L 1375 3325 
L 1375 -475 
L 1025 -650 
Q 1050 -275 1050 -150 
L 1050 3125 
Q 675 2500 300 2100 
L 250 2175 
Q 625 2800 912 3487 
Q 1200 4175 1425 5225 
L 1975 4950 
L 1750 4825 
Q 1400 3950 1275 3650 
L 1600 3500 
z
" transform="scale(0.015625)"/>
       <path id="SimSun-659c" d="M 2075 4600 
Q 1225 3275 275 2550 
L 225 2625 
Q 1375 3875 1925 5275 
L 2425 4950 
Q 2275 4900 2150 4725 
Q 2850 4400 3175 4200 
Q 3500 4000 3425 3737 
Q 3350 3475 3275 3475 
Q 3175 3475 3025 3700 
Q 2750 4125 2075 4600 
z
M 1150 1650 
L 1675 1350 
L 1450 1225 
Q 950 250 375 -350 
L 300 -300 
Q 850 550 1150 1650 
z
M 2500 1475 
L 2575 1525 
Q 3200 1000 3350 787 
Q 3500 575 3500 425 
Q 3500 275 3412 137 
Q 3325 0 3275 0 
Q 3175 0 3075 350 
Q 2925 825 2500 1475 
z
M 3625 4550 
Q 4175 4300 4312 4175 
Q 4450 4050 4450 3925 
Q 4450 3825 4375 3687 
Q 4300 3550 4250 3550 
Q 4175 3550 4075 3775 
Q 3925 4100 3575 4475 
L 3625 4550 
z
M 3550 3075 
Q 4325 2675 4375 2487 
Q 4425 2300 4325 2187 
Q 4225 2075 4175 2075 
Q 4075 2075 4000 2275 
Q 3875 2575 3500 3000 
L 3550 3075 
z
M 4875 1425 
L 3650 1200 
L 3500 1125 
L 3250 1300 
L 4875 1575 
Q 4875 3500 4850 5225 
L 5425 4950 
L 5225 4800 
L 5225 1650 
L 5500 1700 
L 5675 2025 
L 6175 1675 
L 5225 1500 
Q 5225 100 5250 -450 
L 4850 -650 
Q 4875 475 4875 1425 
z
M 1125 0 
Q 1500 -50 1700 -62 
Q 1900 -75 1900 150 
L 1900 2000 
L 1325 2000 
Q 1000 2000 725 1925 
L 500 2150 
L 1900 2150 
L 1900 3075 
L 1875 3075 
Q 1550 3075 1275 3000 
L 1050 3225 
L 2525 3225 
L 2800 3500 
L 3225 3075 
L 2250 3075 
L 2250 2150 
L 2750 2150 
L 3050 2450 
L 3500 2000 
L 2250 2000 
L 2250 0 
Q 2250 -400 1725 -600 
Q 1750 -300 1125 -100 
L 1125 0 
z
" transform="scale(0.015625)"/>
       <path id="SimSun-89d2" d="M 2325 4325 
Q 2075 3975 1800 3625 
L 1925 3475 
L 3450 3475 
L 3875 4325 
L 2325 4325 
z
M 1950 3325 
L 1950 2475 
L 3225 2475 
L 3225 3325 
L 1950 3325 
z
M 3575 3325 
L 3575 2475 
L 5025 2475 
L 5025 3325 
L 3575 3325 
z
M 1950 2325 
Q 1950 1850 1925 1475 
L 3225 1475 
L 3225 2325 
L 1950 2325 
z
M 3575 2325 
L 3575 1475 
L 5025 1475 
L 5025 2325 
L 3575 2325 
z
M 4050 -25 
Q 4650 -100 4837 -112 
Q 5025 -125 5025 75 
L 5025 1325 
L 3575 1325 
Q 3575 -50 3600 -300 
L 3175 -525 
Q 3225 -175 3225 1325 
L 1900 1325 
Q 1825 650 1450 162 
Q 1075 -325 400 -650 
L 350 -575 
Q 800 -250 1087 125 
Q 1375 500 1500 1012 
Q 1625 1525 1600 3400 
Q 1200 2975 550 2625 
L 475 2700 
Q 1125 3175 1650 3950 
Q 2175 4725 2300 5250 
L 2850 4900 
L 2625 4825 
Q 2525 4700 2400 4475 
L 3825 4475 
L 4100 4750 
L 4550 4300 
Q 4350 4250 4187 4137 
Q 4025 4025 3575 3475 
L 4925 3475 
L 5200 3750 
L 5600 3400 
L 5375 3225 
L 5375 50 
Q 5400 -300 5262 -437 
Q 5125 -575 4875 -675 
Q 4725 -300 4050 -150 
L 4050 -25 
z
" transform="scale(0.015625)"/>
       <path id="SimSun-28" d="M 2900 5025 
Q 2325 4425 2037 3737 
Q 1750 3050 1750 2300 
Q 1750 1525 2037 850 
Q 2325 175 2900 -425 
L 2775 -550 
Q 2075 75 1725 787 
Q 1375 1500 1375 2300 
Q 1375 3075 1725 3787 
Q 2075 4500 2775 5150 
L 2900 5025 
z
" transform="scale(0.015625)"/>
       <path id="SimSun-5ea6" d="M 2550 2025 
Q 2575 2525 2575 3175 
L 1925 3175 
L 1625 3125 
L 1425 3325 
L 2575 3325 
Q 2575 3700 2550 4150 
L 3100 3875 
L 2900 3750 
L 2900 3325 
L 4300 3325 
Q 4300 3750 4275 4125 
L 4850 3875 
L 4625 3725 
L 4625 3325 
L 5100 3325 
L 5425 3650 
L 5900 3175 
L 4625 3175 
Q 4625 2450 4650 2225 
L 4300 2075 
L 4300 2300 
L 2900 2300 
L 2900 2175 
L 2550 2025 
z
M 4875 1500 
Q 4300 775 3900 425 
Q 4700 -75 6025 -125 
L 6025 -225 
Q 5625 -300 5550 -550 
Q 4375 -325 3675 225 
Q 2475 -450 1075 -625 
L 1050 -525 
Q 2375 -275 3450 450 
Q 2975 925 2575 1625 
L 2325 1625 
L 2100 1575 
L 1900 1775 
L 4525 1775 
L 4750 2000 
L 5125 1625 
L 4875 1500 
z
M 2700 1625 
Q 3175 975 3650 625 
Q 4150 1100 4500 1625 
L 2700 1625 
z
M 2900 3175 
L 2900 2450 
L 4300 2450 
L 4300 3175 
L 2900 3175 
z
M 975 4650 
L 1400 4400 
L 3375 4400 
Q 3350 4550 3262 4725 
Q 3175 4900 2900 5225 
L 2975 5275 
Q 3550 5025 3637 4887 
Q 3725 4750 3725 4725 
Q 3725 4575 3525 4400 
L 5150 4400 
L 5500 4750 
L 6000 4250 
L 1375 4250 
Q 1400 2750 1287 1912 
Q 1175 1075 925 475 
Q 675 -125 300 -625 
L 225 -575 
Q 725 300 862 1250 
Q 1000 2200 1012 3187 
Q 1025 4175 975 4650 
z
" transform="scale(0.015625)"/>
       <path id="SimSun-29" d="M 275 5025 
L 400 5150 
Q 1100 4500 1450 3787 
Q 1800 3075 1800 2300 
Q 1800 1500 1450 787 
Q 1100 75 400 -550 
L 275 -425 
Q 850 175 1137 850 
Q 1425 1525 1425 2300 
Q 1425 3050 1137 3737 
Q 850 4425 275 5025 
z
" transform="scale(0.015625)"/>
      </defs>
      <use xlink:href="#SimSun-503e"/>
      <use xlink:href="#SimSun-659c" transform="translate(100 0)"/>
      <use xlink:href="#SimSun-89d2" transform="translate(200 0)"/>
      <use xlink:href="#SimSun-28" transform="translate(300 0)"/>
      <use xlink:href="#SimSun-5ea6" transform="translate(350 0)"/>
      <use xlink:href="#SimSun-29" transform="translate(450 0)"/>
     </g>
    </g>
   </g>
   <g id="line2d_23">
    <path d="M 73.832727 149.483727 
L 183.498644 149.483702 
L 184.584445 172.076764 
L 185.670246 217.550797 
L 186.756047 255.330772 
L 187.841849 279.385484 
L 188.92765 290.505675 
L 190.013451 295.488 
L 191.099252 293.734608 
L 192.185053 285.06127 
L 193.270854 271.03363 
L 194.356656 252.774847 
L 198.69986 169.206435 
L 199.785661 150.276111 
L 201.957264 120.891597 
L 203.043065 108.606256 
L 204.128866 98.488346 
L 205.214667 91.213286 
L 206.300468 84.907958 
L 207.386269 79.755589 
L 208.472071 75.960467 
L 209.557872 73.605729 
L 210.643673 71.79213 
L 211.729474 70.634027 
L 212.815275 70.167133 
L 213.901076 70.152314 
L 214.986877 70.606568 
L 216.072679 71.498967 
L 217.15848 72.545614 
L 218.244281 73.916546 
L 219.330082 75.611371 
L 222.587486 81.578378 
L 225.844889 88.842146 
L 230.188094 100.258583 
L 235.617099 116.612421 
L 237.788702 123.367983 
L 244.303509 144.277547 
L 249.732514 159.630274 
L 251.904117 165.035446 
L 255.16152 171.412466 
L 257.333123 174.557133 
L 258.418924 175.863727 
L 259.504725 176.904187 
L 260.590526 177.630517 
L 261.676327 178.202061 
L 262.762128 178.558311 
L 263.847929 178.668949 
L 264.933731 178.584201 
L 266.019532 178.32569 
L 268.191134 177.326571 
L 269.276935 176.61143 
L 271.448538 174.742923 
L 273.62014 172.673405 
L 283.39235 161.928263 
L 287.735555 158.0222 
L 290.992958 155.498257 
L 294.250362 153.542334 
L 297.507765 152.018557 
L 299.679368 151.222779 
L 302.936771 150.29879 
L 306.194175 149.642006 
L 310.537379 149.146624 
L 314.880584 148.920694 
L 320.30959 148.889085 
L 330.0818 149.135867 
L 347.454618 149.52924 
L 361.570033 149.580745 
L 398.487273 149.478306 
L 398.487273 149.478306 
" clip-path="url(#p366bd25eb2)" style="fill: none; stroke: #1f77b4; stroke-width: 2; stroke-linecap: square"/>
   </g>
   <g id="line2d_24">
    <path d="M 73.832727 149.483738 
L 183.498644 149.483738 
L 184.584445 187.527497 
L 185.670246 205.629154 
L 186.756047 229.553542 
L 187.841849 232.667671 
L 188.92765 226.215453 
L 191.099252 195.163572 
L 192.185053 164.031717 
L 193.270854 142.707489 
L 194.356656 90.938526 
L 195.442457 70.606494 
L 196.528258 53.568 
L 197.614059 63.873492 
L 198.69986 71.828734 
L 199.785661 81.25789 
L 200.871462 82.854966 
L 201.957264 94.116654 
L 203.043065 94.741554 
L 204.128866 95.909249 
L 205.214667 101.892516 
L 206.300468 106.975378 
L 207.386269 113.76094 
L 208.472071 123.41675 
L 209.557872 136.797216 
L 210.643673 147.308379 
L 211.729474 153.541846 
L 212.815275 155.177498 
L 213.901076 155.298096 
L 216.072679 149.624123 
L 217.15848 148.906733 
L 218.244281 148.978815 
L 220.415883 149.753935 
L 221.501684 149.692798 
L 222.587486 149.333997 
L 223.673287 149.483738 
L 398.487273 149.483738 
L 398.487273 149.483738 
" clip-path="url(#p366bd25eb2)" style="fill: none; stroke: #ff7f0e; stroke-width: 2; stroke-linecap: square"/>
   </g>
   <g id="patch_3">
    <path d="M 57.6 307.584 
L 57.6 41.472 
" style="fill: none; stroke: #000000; stroke-width: 0.8; stroke-linejoin: miter; stroke-linecap: square"/>
   </g>
   <g id="patch_4">
    <path d="M 414.72 307.584 
L 414.72 41.472 
" style="fill: none; stroke: #000000; stroke-width: 0.8; stroke-linejoin: miter; stroke-linecap: square"/>
   </g>
   <g id="patch_5">
    <path d="M 57.6 307.584 
L 414.72 307.584 
" style="fill: none; stroke: #000000; stroke-width: 0.8; stroke-linejoin: miter; stroke-linecap: square"/>
   </g>
   <g id="patch_6">
    <path d="M 57.6 41.472 
L 414.72 41.472 
" style="fill: none; stroke: #000000; stroke-width: 0.8; stroke-linejoin: miter; stroke-linecap: square"/>
   </g>
   <g id="legend_1">
    <g id="patch_7">
     <path d="M 311.22 95.073562 
L 404.22 95.073562 
Q 407.22 95.073562 407.22 92.073562 
L 407.22 51.972 
Q 407.22 48.972 404.22 48.972 
L 311.22 48.972 
Q 308.22 48.972 308.22 51.972 
L 308.22 92.073562 
Q 308.22 95.073562 311.22 95.073562 
z
" style="fill: #ffffff; opacity: 0.8; stroke: #cccccc; stroke-linejoin: miter"/>
    </g>
    <g id="line2d_25">
     <path d="M 314.22 60.444656 
L 329.22 60.444656 
L 344.22 60.444656 
" style="fill: none; stroke: #1f77b4; stroke-width: 2; stroke-linecap: square"/>
    </g>
    <g id="text_14">
     <!-- PID -->
     <g transform="translate(356.22 65.694656) scale(0.15 -0.15)">
      <defs>
       <path id="SimSun-50" d="M 950 2100 
L 950 450 
Q 950 350 1012 300 
Q 1075 250 1175 250 
L 1350 250 
L 1350 100 
L 150 100 
L 150 250 
L 325 250 
Q 450 250 500 300 
Q 550 350 550 450 
L 550 4025 
Q 550 4125 500 4175 
Q 450 4225 325 4225 
L 175 4225 
L 175 4375 
L 1650 4375 
Q 2275 4375 2612 4062 
Q 2950 3750 2950 3275 
Q 2950 2700 2587 2400 
Q 2225 2100 1725 2100 
L 950 2100 
z
M 1575 2250 
Q 1950 2250 2237 2475 
Q 2525 2700 2525 3250 
Q 2525 3750 2287 3987 
Q 2050 4225 1525 4225 
L 1175 4225 
Q 1075 4225 1012 4175 
Q 950 4125 950 4025 
L 950 2250 
L 1575 2250 
z
" transform="scale(0.015625)"/>
       <path id="SimSun-49" d="M 600 4225 
L 600 4375 
L 2600 4375 
L 2600 4225 
L 2025 4225 
Q 1925 4225 1862 4175 
Q 1800 4125 1800 4025 
L 1800 450 
Q 1800 350 1862 300 
Q 1925 250 2025 250 
L 2600 250 
L 2600 100 
L 600 100 
L 600 250 
L 1175 250 
Q 1300 250 1350 300 
Q 1400 350 1400 450 
L 1400 4025 
Q 1400 4125 1350 4175 
Q 1300 4225 1175 4225 
L 600 4225 
z
" transform="scale(0.015625)"/>
       <path id="SimSun-44" d="M 2500 2275 
Q 2500 3350 2175 3787 
Q 1850 4225 1275 4225 
Q 1100 4225 1012 4175 
Q 925 4125 925 4025 
L 925 450 
Q 925 350 1000 300 
Q 1075 250 1200 250 
Q 1750 250 2125 662 
Q 2500 1075 2500 2275 
z
M 525 4025 
Q 525 4125 475 4175 
Q 425 4225 300 4225 
L 150 4225 
L 150 4375 
L 1275 4375 
Q 2050 4375 2512 3875 
Q 2975 3375 2975 2325 
Q 2975 1175 2525 637 
Q 2075 100 1200 100 
L 125 100 
L 125 250 
L 300 250 
Q 425 250 475 300 
Q 525 350 525 450 
L 525 4025 
z
" transform="scale(0.015625)"/>
      </defs>
      <use xlink:href="#SimSun-50"/>
      <use xlink:href="#SimSun-49" transform="translate(50 0)"/>
      <use xlink:href="#SimSun-44" transform="translate(100 0)"/>
     </g>
    </g>
    <g id="line2d_26">
     <path d="M 314.22 81.889969 
L 329.22 81.889969 
L 344.22 81.889969 
" style="fill: none; stroke: #ff7f0e; stroke-width: 2; stroke-linecap: square"/>
    </g>
    <g id="text_15">
     <!-- 本方法 -->
     <g transform="translate(356.22 87.139969) scale(0.15 -0.15)">
      <defs>
       <path id="SimSun-672c" d="M 3400 850 
Q 3400 -50 3425 -525 
L 3000 -675 
Q 3025 425 3025 850 
L 1975 850 
L 1750 800 
L 1550 1000 
L 3025 1000 
L 3025 3200 
Q 2075 1250 300 325 
L 275 425 
Q 1925 1550 2800 3625 
L 1325 3625 
Q 1000 3625 725 3550 
L 500 3775 
L 3025 3775 
Q 3025 4450 3000 5250 
L 3650 4950 
L 3400 4750 
L 3400 3775 
L 5100 3775 
L 5450 4125 
L 5950 3625 
L 3650 3625 
Q 4475 1550 6100 1025 
L 6100 925 
Q 5625 900 5550 625 
Q 4200 1500 3525 3625 
L 3400 3625 
L 3400 1000 
L 4150 1000 
L 4450 1300 
L 4900 850 
L 3400 850 
z
" transform="scale(0.015625)"/>
       <path id="SimSun-65b9" d="M 275 3925 
L 5250 3925 
L 5625 4300 
L 6150 3775 
L 3075 3775 
Q 3050 3300 2950 2675 
L 4575 2675 
L 4825 2925 
L 5225 2550 
L 4975 2400 
Q 4725 475 4625 125 
Q 4525 -225 4312 -362 
Q 4100 -500 3725 -600 
Q 3625 -200 2900 100 
L 2925 200 
Q 3600 0 3812 -12 
Q 4025 -25 4137 75 
Q 4250 175 4350 712 
Q 4450 1250 4600 2525 
L 2925 2525 
Q 2500 350 475 -575 
L 425 -475 
Q 2675 800 2675 3775 
L 1100 3775 
Q 775 3775 500 3700 
L 275 3925 
z
M 2675 5150 
Q 3325 4900 3437 4725 
Q 3550 4550 3550 4450 
Q 3550 4350 3450 4212 
Q 3350 4075 3325 4075 
Q 3225 4075 3125 4350 
Q 2975 4725 2625 5075 
L 2675 5150 
z
" transform="scale(0.015625)"/>
       <path id="SimSun-6cd5" d="M 3800 3850 
Q 3800 4925 3775 5275 
L 4375 4975 
L 4125 4725 
L 4125 3850 
L 5100 3850 
L 5375 4125 
L 5775 3700 
L 4125 3700 
L 4125 2350 
L 5450 2350 
L 5750 2650 
L 6175 2200 
L 3825 2200 
L 4225 1925 
Q 4000 1825 3750 1450 
Q 3500 1075 2600 125 
L 5225 300 
Q 4900 750 4525 1175 
L 4575 1250 
Q 5025 925 5287 725 
Q 5550 525 5712 337 
Q 5875 150 5875 0 
Q 5875 -150 5775 -300 
Q 5675 -450 5650 -450 
Q 5575 -450 5525 -300 
Q 5425 -50 5300 175 
Q 3900 25 3175 -150 
Q 2450 -325 2350 -450 
L 2100 125 
Q 2425 125 2962 875 
Q 3500 1625 3700 2200 
L 2775 2200 
Q 2450 2200 2175 2125 
L 1950 2350 
L 3800 2350 
L 3800 3700 
L 3250 3700 
Q 2925 3700 2650 3625 
L 2425 3850 
L 3800 3850 
z
M 2375 4150 
Q 1400 1500 1312 1187 
Q 1225 875 1237 425 
Q 1250 -25 1275 -200 
Q 1275 -300 1150 -300 
Q 1050 -300 900 -250 
Q 750 -200 750 -25 
Q 750 100 825 350 
Q 900 600 900 750 
Q 900 925 787 1025 
Q 675 1125 300 1225 
L 300 1325 
Q 750 1275 862 1287 
Q 975 1300 1112 1512 
Q 1250 1725 2275 4175 
L 2375 4150 
z
M 325 3600 
Q 1200 3150 1200 2862 
Q 1200 2575 1062 2475 
Q 925 2375 825 2725 
Q 700 3050 275 3525 
L 325 3600 
z
M 900 5050 
Q 1600 4700 1662 4525 
Q 1725 4350 1725 4275 
Q 1725 4150 1637 4050 
Q 1550 3950 1500 3950 
Q 1425 3950 1350 4200 
Q 1225 4525 850 4975 
L 900 5050 
z
" transform="scale(0.015625)"/>
      </defs>
      <use xlink:href="#SimSun-672c"/>
      <use xlink:href="#SimSun-65b9" transform="translate(100 0)"/>
      <use xlink:href="#SimSun-6cd5" transform="translate(200 0)"/>
     </g>
    </g>
   </g>
  </g>
 </g>
 <defs>
  <clipPath id="p366bd25eb2">
   <rect x="57.6" y="41.472" width="357.12" height="266.112"/>
  </clipPath>
 </defs>
</svg>
