<?xml version="1.0" encoding="utf-8" standalone="no"?>
<!DOCTYPE svg PUBLIC "-//W3C//DTD SVG 1.1//EN"
  "http://www.w3.org/Graphics/SVG/1.1/DTD/svg11.dtd">
<svg xmlns:xlink="http://www.w3.org/1999/xlink" width="288pt" height="432pt" viewBox="0 0 288 432" xmlns="http://www.w3.org/2000/svg" version="1.1">
 <metadata>
  <rdf:RDF xmlns:dc="http://purl.org/dc/elements/1.1/" xmlns:cc="http://creativecommons.org/ns#" xmlns:rdf="http://www.w3.org/1999/02/22-rdf-syntax-ns#">
   <cc:Work>
    <dc:type rdf:resource="http://purl.org/dc/dcmitype/StillImage"/>
    <dc:date>2025-03-10T12:14:37.048166</dc:date>
    <dc:format>image/svg+xml</dc:format>
    <dc:creator>
     <cc:Agent>
      <dc:title>Matplotlib v3.10.0, https://matplotlib.org/</dc:title>
     </cc:Agent>
    </dc:creator>
   </cc:Work>
  </rdf:RDF>
 </metadata>
 <defs>
  <style type="text/css">*{stroke-linejoin: round; stroke-linecap: butt}</style>
 </defs>
 <g id="figure_1">
  <g id="patch_1">
   <path d="M 0 432 
L 288 432 
L 288 0 
L 0 0 
z
" style="fill: #ffffff"/>
  </g>
  <g id="axes_1">
   <g id="patch_2">
    <path d="M 50.99375 402.39875 
L 277.2 402.39875 
L 277.2 10.8 
L 50.99375 10.8 
z
" style="fill: #ffffff"/>
   </g>
   <g id="patch_3">
    <path d="M 61.275852 402.39875 
L 108.731709 402.39875 
L 108.731709 194.749724 
L 61.275852 194.749724 
z
" clip-path="url(#p416e37dd7d)" style="fill: #1f77b4"/>
   </g>
   <g id="patch_4">
    <path d="M 140.368947 402.39875 
L 187.824803 402.39875 
L 187.824803 212.113675 
L 140.368947 212.113675 
z
" clip-path="url(#p416e37dd7d)" style="fill: #1f77b4"/>
   </g>
   <g id="patch_5">
    <path d="M 219.462041 402.39875 
L 266.917898 402.39875 
L 266.917898 29.44756 
L 219.462041 29.44756 
z
" clip-path="url(#p416e37dd7d)" style="fill: #1f77b4"/>
   </g>
   <g id="matplotlib.axis_1">
    <g id="xtick_1">
     <g id="line2d_1">
      <defs>
       <path id="med609e96e1" d="M 0 0 
L 0 3.5 
" style="stroke: #000000; stroke-width: 0.8"/>
      </defs>
      <g>
       <use xlink:href="#med609e96e1" x="85.003781" y="402.39875" style="stroke: #000000; stroke-width: 0.8"/>
      </g>
     </g>
     <g id="text_1">
      <!-- 基准组 -->
      <g transform="translate(67.003781 418.77375) scale(0.12 -0.12)">
       <defs>
        <path id="SimSun-57fa" d="M 2925 875 
Q 2925 1500 2900 1975 
L 3475 1700 
L 3250 1550 
L 3250 875 
L 3925 875 
L 4225 1175 
L 4675 725 
L 3250 725 
L 3250 -200 
L 4825 -200 
L 5200 175 
L 5725 -350 
L 1400 -350 
Q 1075 -350 800 -425 
L 575 -200 
L 2925 -200 
L 2925 725 
L 2075 725 
L 1800 675 
L 1600 875 
L 2925 875 
z
M 4100 4400 
Q 4100 4850 4075 5225 
L 4650 4975 
L 4450 4800 
L 4450 4400 
L 5025 4400 
L 5350 4725 
L 5825 4250 
L 4450 4250 
L 4450 2225 
L 5050 2225 
L 5475 2650 
L 6050 2075 
L 4000 2075 
Q 4425 1575 5000 1350 
Q 5575 1125 6125 1075 
L 6125 975 
Q 5725 900 5675 650 
Q 5025 900 4550 1262 
Q 4075 1625 3850 2075 
L 2500 2075 
Q 2125 1475 1525 1062 
Q 925 650 275 450 
L 250 550 
Q 1000 900 1437 1312 
Q 1875 1725 2050 2075 
L 1125 2075 
Q 800 2075 525 2000 
L 300 2225 
L 1875 2225 
L 1875 4250 
L 1075 4250 
L 800 4200 
L 600 4400 
L 1875 4400 
Q 1875 4800 1850 5200 
L 2425 4925 
L 2225 4750 
L 2225 4400 
L 4100 4400 
z
M 2225 4250 
L 2225 3675 
L 4100 3675 
L 4100 4250 
L 2225 4250 
z
M 2225 3525 
L 2225 2950 
L 4100 2950 
L 4100 3525 
L 2225 3525 
z
M 2225 2800 
L 2225 2225 
L 4100 2225 
L 4100 2800 
L 2225 2800 
z
" transform="scale(0.015625)"/>
        <path id="SimSun-51c6" d="M 2575 -600 
Q 2600 300 2600 550 
L 2600 3375 
Q 2200 2725 1675 2200 
L 1600 2250 
Q 2100 2950 2462 3812 
Q 2825 4675 2925 5175 
L 3450 4850 
L 3250 4725 
Q 3025 4275 2875 3950 
L 5175 3950 
L 5525 4300 
L 6025 3800 
L 4450 3800 
L 4450 2775 
L 5000 2775 
L 5325 3100 
L 5800 2625 
L 4450 2625 
L 4450 1450 
L 5100 1450 
L 5425 1775 
L 5900 1300 
L 4450 1300 
L 4450 100 
L 5250 100 
L 5600 450 
L 6100 -50 
L 2950 -50 
L 2950 -425 
L 2575 -600 
z
M 4100 3800 
L 2950 3800 
L 2950 2775 
L 4100 2775 
L 4100 3800 
z
M 2950 2625 
L 2950 1450 
L 4100 1450 
L 4100 2625 
L 2950 2625 
z
M 2950 1300 
L 2950 100 
L 4100 100 
L 4100 1300 
L 2950 1300 
z
M 3875 5150 
L 3950 5200 
Q 4675 4725 4650 4500 
Q 4625 4275 4525 4187 
Q 4425 4100 4375 4100 
Q 4275 4100 4250 4350 
Q 4175 4675 3875 5150 
z
M 500 4875 
Q 1350 4375 1337 4137 
Q 1325 3900 1225 3787 
Q 1125 3675 1075 3675 
Q 1000 3675 925 3925 
Q 825 4275 450 4825 
L 500 4875 
z
M 300 1825 
Q 625 1825 862 1887 
Q 1100 1950 2100 4500 
L 2200 4475 
Q 1750 3150 1500 2450 
Q 1225 1750 1200 1137 
Q 1175 525 1200 175 
Q 1200 -200 1012 -137 
Q 825 -75 750 37 
Q 675 150 675 300 
Q 675 450 700 550 
Q 775 850 825 1100 
Q 875 1350 787 1500 
Q 700 1650 300 1725 
L 300 1825 
z
" transform="scale(0.015625)"/>
        <path id="SimSun-7ec4" d="M 1000 1525 
Q 1950 1675 2400 1775 
L 2425 1675 
Q 2100 1575 1537 1387 
Q 975 1200 750 1025 
L 475 1475 
Q 725 1550 987 1875 
Q 1250 2200 1750 3000 
Q 1375 2925 1087 2812 
Q 800 2700 625 2600 
L 400 3025 
Q 650 3075 1025 3912 
Q 1400 4750 1475 5175 
L 1925 4875 
Q 1700 4650 1475 4200 
Q 1225 3750 775 3025 
L 1800 3125 
Q 2050 3600 2200 4075 
L 2625 3775 
Q 2500 3650 2125 3075 
Q 1750 2475 1000 1525 
z
M 325 250 
Q 625 300 1312 475 
Q 2000 650 2525 825 
L 2575 700 
Q 2225 575 1525 262 
Q 825 -50 625 -225 
L 325 250 
z
M 3250 4550 
L 3250 3175 
L 4850 3175 
L 4850 4550 
L 3250 4550 
z
M 3250 3025 
L 3250 1625 
L 4850 1625 
L 4850 3025 
L 3250 3025 
z
M 3250 1475 
L 3250 -50 
L 4850 -50 
L 4850 1475 
L 3250 1475 
z
M 2925 3475 
Q 2925 4500 2900 4925 
L 3250 4700 
L 4825 4700 
L 5025 4975 
L 5425 4650 
L 5200 4450 
L 5200 -50 
L 5375 -50 
L 5750 300 
L 6175 -200 
L 2825 -200 
Q 2500 -200 2225 -275 
L 2000 -50 
L 2925 -50 
L 2925 3475 
z
" transform="scale(0.015625)"/>
       </defs>
       <use xlink:href="#SimSun-57fa"/>
       <use xlink:href="#SimSun-51c6" transform="translate(100 0)"/>
       <use xlink:href="#SimSun-7ec4" transform="translate(200 0)"/>
      </g>
     </g>
    </g>
    <g id="xtick_2">
     <g id="line2d_2">
      <g>
       <use xlink:href="#med609e96e1" x="164.096875" y="402.39875" style="stroke: #000000; stroke-width: 0.8"/>
      </g>
     </g>
     <g id="text_2">
      <!-- 实验组1 -->
      <g transform="translate(143.096875 418.914375) scale(0.12 -0.12)">
       <defs>
        <path id="SimSun-5b9e" d="M 1950 3625 
Q 2575 3400 2700 3250 
Q 2825 3100 2825 2975 
Q 2825 2850 2750 2700 
Q 2675 2550 2625 2550 
Q 2550 2550 2450 2800 
Q 2275 3175 1900 3550 
L 1950 3625 
z
M 3575 1325 
Q 3500 1100 3425 925 
Q 4650 550 5087 325 
Q 5525 100 5512 -225 
Q 5500 -550 5400 -550 
Q 5300 -550 5075 -300 
Q 4625 175 3375 800 
Q 3025 175 2300 -150 
Q 1575 -475 425 -625 
L 425 -525 
Q 1475 -325 2200 100 
Q 2925 525 3200 1325 
L 1225 1325 
Q 900 1325 625 1250 
L 400 1475 
L 3225 1475 
Q 3325 1950 3375 2575 
Q 3425 3200 3425 3700 
L 4050 3400 
L 3850 3225 
Q 3750 2300 3625 1475 
L 5175 1475 
L 5550 1850 
L 6075 1325 
L 3575 1325 
z
M 1275 2700 
Q 1975 2425 2100 2262 
Q 2225 2100 2225 1975 
Q 2225 1850 2150 1700 
Q 2075 1550 2025 1550 
Q 1950 1550 1850 1800 
Q 1675 2175 1225 2625 
L 1275 2700 
z
M 2750 5225 
L 2825 5275 
Q 3225 5100 3425 4925 
Q 3625 4750 3625 4600 
Q 3625 4450 3512 4300 
Q 3400 4150 3325 4150 
Q 3250 4150 3200 4400 
Q 3100 4775 2750 5225 
z
M 4975 3225 
L 5350 3925 
L 1175 3925 
Q 1225 3525 1125 3300 
Q 1025 3075 787 3100 
Q 550 3125 550 3200 
Q 550 3300 700 3475 
Q 975 3825 1050 4375 
L 1150 4375 
L 1175 4075 
L 5300 4075 
L 5575 4350 
L 6050 3800 
Q 5625 3825 5050 3175 
L 4975 3225 
z
" transform="scale(0.015625)"/>
        <path id="SimSun-9a8c" d="M 4050 5225 
L 4550 4925 
L 4350 4800 
Q 5050 3225 6125 2975 
L 6125 2900 
Q 5750 2850 5650 2600 
Q 4700 3325 4275 4725 
Q 3575 3225 2525 2475 
L 2475 2550 
Q 3075 3150 3500 3925 
Q 3925 4700 4050 5225 
z
M 3025 2800 
L 4650 2800 
L 4950 3100 
L 5350 2650 
L 3850 2650 
Q 3525 2650 3250 2575 
L 3025 2800 
z
M 2925 2000 
L 3000 2050 
Q 3475 1300 3537 1100 
Q 3600 900 3600 775 
Q 3600 625 3512 475 
Q 3425 325 3312 337 
Q 3200 350 3175 800 
Q 3150 1250 2925 2000 
z
M 3650 2225 
L 3725 2275 
Q 4375 1450 4425 1100 
Q 4475 750 4337 650 
Q 4200 550 4175 550 
Q 4075 550 4050 800 
Q 4025 1150 3900 1562 
Q 3775 1975 3650 2225 
z
M 5175 2300 
L 5700 1950 
Q 5525 1875 5325 1412 
Q 5125 950 4675 -150 
L 5300 -150 
L 5650 200 
L 6100 -300 
L 3375 -300 
Q 3050 -300 2775 -375 
L 2550 -150 
L 4525 -150 
Q 5175 1900 5175 2300 
z
M 400 4675 
L 1950 4675 
L 2150 4925 
L 2525 4600 
L 2300 4450 
L 2050 2275 
L 2225 2275 
L 2375 2475 
L 2750 2175 
L 2550 2025 
Q 2425 500 2300 175 
Q 2175 -150 1975 -287 
Q 1775 -425 1550 -475 
Q 1525 -125 825 100 
L 850 200 
Q 1550 50 1725 62 
Q 1900 75 2012 437 
Q 2125 800 2225 2125 
L 1000 2125 
L 825 1925 
L 500 2225 
L 675 2325 
Q 875 3750 900 4200 
L 1400 3925 
L 1200 3775 
L 1000 2275 
L 1725 2275 
L 1975 4525 
L 1225 4525 
Q 900 4525 625 4450 
L 400 4675 
z
M 225 1075 
Q 725 1125 2000 1375 
L 2025 1275 
Q 600 850 500 650 
L 225 1075 
z
" transform="scale(0.015625)"/>
        <path id="SimSun-31" d="M 1825 4450 
L 1825 650 
Q 1825 450 1950 350 
Q 2075 250 2300 250 
L 2550 250 
L 2550 100 
L 725 100 
L 725 250 
L 950 250 
Q 1200 250 1312 350 
Q 1425 450 1425 650 
L 1425 3675 
Q 1425 3775 1362 3837 
Q 1300 3900 1175 3900 
L 725 3900 
L 725 4050 
L 950 4050 
Q 1250 4050 1437 4150 
Q 1625 4250 1725 4450 
L 1825 4450 
z
" transform="scale(0.015625)"/>
       </defs>
       <use xlink:href="#SimSun-5b9e"/>
       <use xlink:href="#SimSun-9a8c" transform="translate(100 0)"/>
       <use xlink:href="#SimSun-7ec4" transform="translate(200 0)"/>
       <use xlink:href="#SimSun-31" transform="translate(300 0)"/>
      </g>
     </g>
    </g>
    <g id="xtick_3">
     <g id="line2d_3">
      <g>
       <use xlink:href="#med609e96e1" x="243.189969" y="402.39875" style="stroke: #000000; stroke-width: 0.8"/>
      </g>
     </g>
     <g id="text_3">
      <!-- 实验组2 -->
      <g transform="translate(222.189969 418.914375) scale(0.12 -0.12)">
       <defs>
        <path id="SimSun-32" d="M 2325 3325 
Q 2325 3775 2125 4012 
Q 1925 4250 1525 4250 
Q 1225 4250 1012 4087 
Q 800 3925 800 3675 
Q 800 3525 900 3425 
Q 975 3325 975 3225 
Q 975 3100 912 3037 
Q 850 2975 725 2975 
Q 575 2975 487 3062 
Q 400 3150 400 3350 
Q 400 3875 775 4150 
Q 1150 4425 1575 4425 
Q 2175 4425 2462 4125 
Q 2750 3825 2750 3375 
Q 2750 3075 2612 2775 
Q 2475 2475 2175 2200 
Q 1450 1500 1062 1062 
Q 675 625 600 475 
L 2075 475 
Q 2300 475 2450 650 
Q 2600 825 2650 1175 
L 2800 1175 
L 2650 100 
L 325 100 
L 325 425 
Q 450 650 737 1000 
Q 1025 1350 1500 1825 
Q 1925 2250 2125 2625 
Q 2325 3000 2325 3325 
z
" transform="scale(0.015625)"/>
       </defs>
       <use xlink:href="#SimSun-5b9e"/>
       <use xlink:href="#SimSun-9a8c" transform="translate(100 0)"/>
       <use xlink:href="#SimSun-7ec4" transform="translate(200 0)"/>
       <use xlink:href="#SimSun-32" transform="translate(300 0)"/>
      </g>
     </g>
    </g>
   </g>
   <g id="matplotlib.axis_2">
    <g id="ytick_1">
     <g id="line2d_4">
      <defs>
       <path id="m42045d8be2" d="M 0 0 
L -3.5 0 
" style="stroke: #000000; stroke-width: 0.8"/>
      </defs>
      <g>
       <use xlink:href="#m42045d8be2" x="50.99375" y="402.39875" style="stroke: #000000; stroke-width: 0.8"/>
      </g>
     </g>
     <g id="text_4">
      <!-- 0 -->
      <g transform="translate(36.99375 407.402656) scale(0.14 -0.14)">
       <defs>
        <path id="SimSun-30" d="M 1600 4225 
Q 1250 4225 1012 3687 
Q 775 3150 775 2250 
Q 775 1300 1012 775 
Q 1250 250 1600 250 
Q 1975 250 2187 775 
Q 2400 1300 2400 2250 
Q 2400 3150 2200 3687 
Q 2000 4225 1600 4225 
z
M 1600 50 
Q 1050 50 675 625 
Q 300 1200 300 2250 
Q 300 3225 662 3825 
Q 1025 4425 1600 4425 
Q 2150 4425 2512 3850 
Q 2875 3275 2875 2250 
Q 2875 1225 2512 637 
Q 2150 50 1600 50 
z
" transform="scale(0.015625)"/>
       </defs>
       <use xlink:href="#SimSun-30"/>
      </g>
     </g>
    </g>
    <g id="ytick_2">
     <g id="line2d_5">
      <g>
       <use xlink:href="#m42045d8be2" x="50.99375" y="339.007489" style="stroke: #000000; stroke-width: 0.8"/>
      </g>
     </g>
     <g id="text_5">
      <!-- 10 -->
      <g transform="translate(29.99375 344.011395) scale(0.14 -0.14)">
       <use xlink:href="#SimSun-31"/>
       <use xlink:href="#SimSun-30" transform="translate(50 0)"/>
      </g>
     </g>
    </g>
    <g id="ytick_3">
     <g id="line2d_6">
      <g>
       <use xlink:href="#m42045d8be2" x="50.99375" y="275.616228" style="stroke: #000000; stroke-width: 0.8"/>
      </g>
     </g>
     <g id="text_6">
      <!-- 20 -->
      <g transform="translate(29.99375 280.620134) scale(0.14 -0.14)">
       <use xlink:href="#SimSun-32"/>
       <use xlink:href="#SimSun-30" transform="translate(50 0)"/>
      </g>
     </g>
    </g>
    <g id="ytick_4">
     <g id="line2d_7">
      <g>
       <use xlink:href="#m42045d8be2" x="50.99375" y="212.224967" style="stroke: #000000; stroke-width: 0.8"/>
      </g>
     </g>
     <g id="text_7">
      <!-- 30 -->
      <g transform="translate(29.99375 217.228873) scale(0.14 -0.14)">
       <defs>
        <path id="SimSun-33" d="M 2800 1250 
Q 2800 775 2450 412 
Q 2100 50 1475 50 
Q 1025 50 700 300 
Q 375 550 375 875 
Q 375 1025 475 1137 
Q 575 1250 675 1250 
Q 825 1250 887 1137 
Q 950 1025 950 950 
Q 950 825 900 750 
Q 850 650 850 575 
Q 850 425 1037 325 
Q 1225 225 1450 225 
Q 1900 225 2125 487 
Q 2350 750 2350 1300 
Q 2350 1750 2112 2025 
Q 1875 2300 1225 2300 
L 1225 2475 
Q 1725 2475 1962 2712 
Q 2200 2950 2200 3375 
Q 2200 3725 2012 3987 
Q 1825 4250 1425 4250 
Q 1250 4250 1050 4162 
Q 850 4075 850 3875 
Q 850 3675 900 3625 
Q 950 3575 950 3500 
Q 950 3375 900 3300 
Q 850 3225 725 3225 
Q 625 3225 537 3300 
Q 450 3375 450 3575 
Q 450 3950 775 4187 
Q 1100 4425 1525 4425 
Q 2025 4425 2325 4112 
Q 2625 3800 2625 3450 
Q 2625 3075 2437 2812 
Q 2250 2550 1850 2425 
Q 2400 2225 2600 1900 
Q 2800 1575 2800 1250 
z
" transform="scale(0.015625)"/>
       </defs>
       <use xlink:href="#SimSun-33"/>
       <use xlink:href="#SimSun-30" transform="translate(50 0)"/>
      </g>
     </g>
    </g>
    <g id="ytick_5">
     <g id="line2d_8">
      <g>
       <use xlink:href="#m42045d8be2" x="50.99375" y="148.833706" style="stroke: #000000; stroke-width: 0.8"/>
      </g>
     </g>
     <g id="text_8">
      <!-- 40 -->
      <g transform="translate(29.99375 153.837612) scale(0.14 -0.14)">
       <defs>
        <path id="SimSun-34" d="M 2300 575 
Q 2300 400 2400 325 
Q 2500 250 2675 250 
L 2900 250 
L 2900 100 
L 1250 100 
L 1250 250 
L 1525 250 
Q 1725 250 1812 325 
Q 1900 400 1900 575 
L 1900 1400 
L 225 1400 
L 225 1525 
L 2050 4425 
L 2300 4425 
L 2300 1550 
L 2975 1550 
L 2975 1400 
L 2300 1400 
L 2300 575 
z
M 1875 3800 
L 450 1550 
L 1900 1550 
L 1900 3800 
L 1875 3800 
z
" transform="scale(0.015625)"/>
       </defs>
       <use xlink:href="#SimSun-34"/>
       <use xlink:href="#SimSun-30" transform="translate(50 0)"/>
      </g>
     </g>
    </g>
    <g id="ytick_6">
     <g id="line2d_9">
      <g>
       <use xlink:href="#m42045d8be2" x="50.99375" y="85.442445" style="stroke: #000000; stroke-width: 0.8"/>
      </g>
     </g>
     <g id="text_9">
      <!-- 50 -->
      <g transform="translate(29.99375 90.446351) scale(0.14 -0.14)">
       <defs>
        <path id="SimSun-35" d="M 1725 2850 
Q 2200 2850 2500 2487 
Q 2800 2125 2800 1525 
Q 2800 850 2487 450 
Q 2175 50 1525 50 
Q 1075 50 725 312 
Q 375 575 375 950 
Q 375 1100 462 1212 
Q 550 1325 700 1325 
Q 850 1325 900 1225 
Q 950 1125 950 1050 
Q 950 900 875 825 
Q 800 725 800 625 
Q 800 425 1037 325 
Q 1275 225 1550 225 
Q 1950 225 2162 550 
Q 2375 875 2375 1475 
Q 2375 1975 2187 2287 
Q 2000 2600 1625 2600 
Q 1350 2600 1150 2500 
Q 950 2400 775 2075 
L 550 2100 
L 675 4375 
L 2725 4375 
L 2650 4000 
L 850 4000 
L 750 2350 
Q 1000 2700 1237 2775 
Q 1475 2850 1725 2850 
z
" transform="scale(0.015625)"/>
       </defs>
       <use xlink:href="#SimSun-35"/>
       <use xlink:href="#SimSun-30" transform="translate(50 0)"/>
      </g>
     </g>
    </g>
    <g id="ytick_7">
     <g id="line2d_10">
      <g>
       <use xlink:href="#m42045d8be2" x="50.99375" y="22.051184" style="stroke: #000000; stroke-width: 0.8"/>
      </g>
     </g>
     <g id="text_10">
      <!-- 60 -->
      <g transform="translate(29.99375 27.05509) scale(0.14 -0.14)">
       <defs>
        <path id="SimSun-36" d="M 775 1800 
Q 775 1050 1037 637 
Q 1300 225 1675 225 
Q 2050 225 2250 500 
Q 2450 775 2450 1525 
Q 2450 2025 2237 2300 
Q 2025 2575 1725 2575 
Q 1450 2575 1212 2412 
Q 975 2250 775 1800 
z
M 1750 2825 
Q 2350 2825 2612 2425 
Q 2875 2025 2875 1525 
Q 2875 775 2512 412 
Q 2150 50 1675 50 
Q 1000 50 650 562 
Q 300 1075 300 2050 
Q 300 3200 725 3812 
Q 1150 4425 1875 4425 
Q 2225 4425 2437 4225 
Q 2650 4025 2650 3875 
Q 2650 3725 2587 3650 
Q 2525 3575 2375 3575 
Q 2250 3575 2187 3637 
Q 2125 3700 2125 3825 
Q 2125 3875 2150 3925 
Q 2150 3975 2150 4025 
Q 2150 4125 2075 4187 
Q 2000 4250 1800 4250 
Q 1375 4250 1075 3862 
Q 775 3475 775 2175 
Q 925 2500 1187 2662 
Q 1450 2825 1750 2825 
z
" transform="scale(0.015625)"/>
       </defs>
       <use xlink:href="#SimSun-36"/>
       <use xlink:href="#SimSun-30" transform="translate(50 0)"/>
      </g>
     </g>
    </g>
    <g id="text_11">
     <!-- 平衡能耗(惯性轮角速度平均绝对值) -->
     <g transform="translate(23.93125 334.599375) rotate(-90) scale(0.16 -0.16)">
      <defs>
       <path id="SimSun-5e73" d="M 3375 750 
Q 3375 200 3400 -350 
L 2975 -525 
Q 3000 250 3000 875 
L 3000 2325 
L 1050 2325 
Q 725 2325 450 2250 
L 225 2475 
L 3000 2475 
L 3000 4575 
L 1600 4575 
Q 1275 4575 1000 4500 
L 775 4725 
L 4850 4725 
L 5200 5075 
L 5700 4575 
L 3375 4575 
L 3375 2475 
L 5200 2475 
L 5575 2850 
L 6100 2325 
L 3375 2325 
L 3375 750 
z
M 4750 4325 
L 5275 3925 
Q 5075 3925 4725 3475 
Q 4350 3025 3925 2625 
L 3850 2675 
Q 4500 3550 4750 4325 
z
M 1300 4200 
Q 2025 3675 2150 3487 
Q 2275 3300 2275 3150 
Q 2275 3075 2237 2962 
Q 2200 2850 2062 2750 
Q 1925 2650 1800 3100 
Q 1675 3525 1225 4150 
L 1300 4200 
z
" transform="scale(0.015625)"/>
       <path id="SimSun-8861" d="M 1350 5075 
L 1825 4725 
L 1625 4625 
Q 1000 3775 350 3300 
L 300 3375 
Q 775 3850 1037 4312 
Q 1300 4775 1350 5075 
z
M 1050 -625 
Q 1075 25 1075 2200 
Q 750 1800 300 1475 
L 250 1550 
Q 750 2050 1062 2600 
Q 1375 3150 1500 3525 
L 1925 3200 
L 1725 3100 
Q 1525 2775 1300 2450 
L 1550 2300 
L 1375 2175 
Q 1375 100 1400 -400 
L 1050 -625 
z
M 4250 4475 
L 5400 4475 
L 5650 4725 
L 6025 4325 
L 4950 4325 
Q 4750 4325 4475 4250 
L 4250 4475 
z
M 4225 -25 
Q 4750 -100 4912 -112 
Q 5075 -125 5075 125 
L 5075 3050 
Q 4675 3050 4400 2975 
L 4175 3200 
L 5450 3200 
L 5725 3475 
L 6125 3050 
L 5375 3050 
L 5375 -75 
Q 5375 -275 5262 -387 
Q 5150 -500 4875 -600 
Q 4850 -350 4225 -150 
L 4225 -25 
z
M 4100 3300 
Q 4100 2100 4125 1700 
L 3800 1550 
L 3800 1750 
L 3000 1750 
L 3375 1550 
L 3200 1425 
Q 3175 1225 3175 1125 
L 3875 1125 
L 4150 1400 
L 4550 975 
L 3150 975 
Q 3125 875 3100 775 
Q 3675 475 3850 325 
Q 4025 175 4025 25 
Q 4025 -50 3962 -162 
Q 3900 -275 3875 -275 
Q 3775 -275 3675 -50 
Q 3475 325 3075 675 
Q 2875 125 2500 -137 
Q 2125 -400 1550 -600 
L 1500 -525 
Q 2000 -300 2362 50 
Q 2725 400 2825 975 
L 2500 975 
Q 2175 975 1900 900 
L 1675 1125 
L 2850 1125 
Q 2875 1500 2875 1750 
L 2425 1750 
L 2425 1650 
L 2100 1450 
Q 2125 1975 2125 3600 
Q 2025 3475 1875 3350 
L 1800 3400 
Q 2125 3800 2362 4312 
Q 2600 4825 2675 5225 
L 3150 4925 
L 2975 4825 
Q 2825 4600 2700 4375 
L 3425 4375 
L 3650 4625 
L 4025 4250 
Q 3900 4225 3737 4100 
Q 3575 3975 3225 3500 
L 3750 3500 
L 3975 3725 
L 4275 3425 
L 4100 3300 
z
M 3075 3500 
L 3450 4225 
L 2650 4225 
Q 2475 3975 2200 3650 
L 2400 3500 
L 3075 3500 
z
M 2425 3350 
L 2425 2725 
L 2975 2725 
L 2975 3350 
L 2425 3350 
z
M 3250 3350 
L 3250 2725 
L 3800 2725 
L 3800 3350 
L 3250 3350 
z
M 2425 2575 
L 2425 1900 
L 2975 1900 
L 2975 2575 
L 2425 2575 
z
M 3250 2575 
L 3250 1900 
L 3800 1900 
L 3800 2575 
L 3250 2575 
z
" transform="scale(0.015625)"/>
       <path id="SimSun-80fd" d="M 1775 5250 
L 2225 4875 
Q 1950 4800 1550 4375 
Q 1150 3925 900 3700 
L 2800 3750 
Q 2575 4175 2375 4400 
L 2425 4475 
Q 2850 4225 3075 4012 
Q 3300 3800 3287 3612 
Q 3275 3425 3175 3337 
Q 3075 3250 3025 3250 
Q 2975 3250 2975 3325 
Q 2925 3450 2850 3650 
Q 2425 3600 1700 3525 
Q 975 3450 750 3275 
L 500 3750 
Q 750 3750 1175 4275 
Q 1600 4800 1775 5250 
z
M 825 -600 
Q 850 -75 850 1325 
Q 850 2725 825 3100 
L 1200 2900 
L 2475 2900 
L 2675 3150 
L 3050 2825 
L 2850 2650 
L 2850 100 
Q 2900 -375 2350 -600 
Q 2325 -275 1700 -100 
L 1700 0 
Q 2175 -50 2350 -50 
Q 2525 -50 2525 225 
L 2525 1100 
L 1200 1100 
L 1200 -400 
L 825 -600 
z
M 1200 2750 
L 1200 2125 
L 2525 2125 
L 2525 2750 
L 1200 2750 
z
M 1200 1975 
L 1200 1250 
L 2525 1250 
L 2525 1975 
L 1200 1975 
z
M 3700 3075 
Q 3700 4825 3675 5100 
L 4250 4850 
L 4025 4650 
L 4025 3775 
Q 4800 4175 5175 4675 
L 5550 4250 
L 5325 4225 
Q 4600 3850 4025 3650 
L 4025 3175 
Q 4025 2900 4400 2900 
L 5250 2900 
Q 5500 2925 5525 3162 
Q 5550 3400 5550 3800 
L 5650 3800 
Q 5675 3500 5725 3262 
Q 5775 3025 6000 2950 
Q 5850 2625 5275 2625 
L 4225 2625 
Q 3700 2600 3700 3075 
z
M 3625 50 
Q 3625 2000 3600 2300 
L 4175 2025 
L 3950 1850 
L 3950 1050 
Q 4825 1525 5250 2125 
L 5650 1650 
L 5425 1650 
Q 4600 1200 3950 900 
L 3950 275 
Q 3950 -125 4325 -100 
L 5300 -100 
Q 5575 -75 5600 250 
Q 5600 550 5625 925 
L 5725 925 
Q 5750 500 5812 262 
Q 5875 25 6075 -25 
Q 5950 -375 5325 -400 
L 4175 -400 
Q 3650 -400 3625 50 
z
" transform="scale(0.015625)"/>
       <path id="SimSun-8017" d="M 1525 4175 
Q 1525 4450 1525 4712 
Q 1525 4975 1500 5225 
L 2050 4975 
L 1875 4775 
L 1875 4175 
L 2350 4175 
L 2600 4425 
L 2975 4025 
L 1875 4025 
L 1875 3325 
L 2200 3325 
L 2425 3550 
L 2775 3175 
L 1875 3175 
L 1875 2525 
L 2425 2525 
L 2675 2775 
L 3050 2375 
L 1875 2375 
L 1875 1875 
Q 2350 1625 2525 1462 
Q 2700 1300 2712 1112 
Q 2725 925 2650 850 
L 2550 775 
Q 2450 775 2350 1050 
Q 2225 1375 1875 1750 
Q 1875 225 1875 -25 
Q 1875 -275 1900 -475 
L 1500 -650 
Q 1525 -50 1525 1500 
Q 1225 1000 987 700 
Q 750 400 325 0 
L 275 75 
Q 675 600 1000 1175 
Q 1325 1750 1475 2375 
L 1125 2375 
Q 800 2375 525 2300 
L 300 2525 
L 1525 2525 
L 1525 3175 
L 1450 3175 
Q 1125 3175 850 3100 
L 625 3325 
L 1525 3325 
L 1525 4025 
L 1225 4025 
Q 900 4025 625 3950 
L 400 4175 
L 1525 4175 
z
M 6100 1975 
L 4275 1600 
L 4275 325 
Q 4275 25 4600 25 
L 5400 25 
Q 5575 25 5612 325 
Q 5650 625 5675 1125 
L 5775 1125 
Q 5800 500 5887 325 
Q 5975 150 6125 75 
Q 6000 -150 5850 -212 
Q 5700 -275 5475 -275 
L 4425 -275 
Q 3925 -275 3925 225 
L 3925 1525 
L 3225 1375 
L 3100 1275 
L 2850 1450 
L 3925 1675 
L 3925 2775 
L 3250 2625 
L 3150 2500 
L 2900 2675 
L 3925 2925 
L 3925 4100 
Q 3500 3975 2850 3825 
L 2825 3925 
Q 3725 4200 4350 4500 
Q 4975 4800 5300 5100 
L 5675 4625 
L 5400 4600 
Q 4625 4325 4275 4200 
L 4275 3000 
L 5050 3200 
L 5250 3525 
L 5700 3200 
L 4275 2850 
L 4275 1750 
L 5375 1975 
L 5625 2325 
L 6100 1975 
z
" transform="scale(0.015625)"/>
       <path id="SimSun-28" d="M 2900 5025 
Q 2325 4425 2037 3737 
Q 1750 3050 1750 2300 
Q 1750 1525 2037 850 
Q 2325 175 2900 -425 
L 2775 -550 
Q 2075 75 1725 787 
Q 1375 1500 1375 2300 
Q 1375 3075 1725 3787 
Q 2075 4500 2775 5150 
L 2900 5025 
z
" transform="scale(0.015625)"/>
       <path id="SimSun-60ef" d="M 2600 475 
Q 2625 1025 2625 1575 
Q 2625 2125 2600 2650 
L 3000 2425 
L 5050 2425 
L 5250 2650 
L 5600 2325 
L 5425 2200 
Q 5425 1150 5450 750 
L 5075 600 
L 5075 2275 
L 2950 2275 
L 2950 650 
L 2600 475 
z
M 4225 1525 
Q 4025 500 3600 75 
Q 3175 -350 1900 -625 
L 1875 -525 
Q 3300 -100 3575 562 
Q 3850 1225 3850 1975 
L 4425 1700 
L 4225 1525 
z
M 2700 3200 
L 2775 3875 
L 2475 3875 
L 2200 3825 
L 2000 4025 
L 2775 4025 
Q 2825 4575 2850 5125 
L 3200 4900 
L 4975 4900 
L 5175 5125 
L 5525 4800 
L 5325 4650 
L 5275 4025 
L 5400 4025 
L 5675 4300 
L 6100 3875 
L 5275 3875 
L 5200 2875 
L 4825 2775 
L 4850 2975 
L 3025 2975 
L 2850 2800 
L 2525 3075 
L 2700 3200 
z
M 3875 4025 
L 3925 4750 
L 3175 4750 
L 3125 4025 
L 3875 4025 
z
M 3100 3875 
L 3025 3125 
L 3775 3125 
L 3850 3875 
L 3100 3875 
z
M 4925 4025 
L 4975 4750 
L 4250 4750 
L 4200 4025 
L 4925 4025 
z
M 4175 3875 
L 4100 3125 
L 4875 3125 
L 4925 3875 
L 4175 3875 
z
M 4175 625 
Q 5075 275 5387 62 
Q 5700 -150 5725 -362 
Q 5750 -575 5625 -625 
Q 5500 -675 5200 -275 
Q 4875 125 4125 550 
L 4175 625 
z
M 1600 3825 
L 1600 400 
Q 1600 50 1625 -450 
L 1250 -625 
Q 1275 50 1275 550 
L 1275 4075 
Q 1275 4650 1250 5200 
L 1825 4925 
L 1600 4750 
L 1600 3950 
Q 2100 3675 2212 3537 
Q 2325 3400 2325 3275 
Q 2325 3175 2250 3050 
Q 2175 2925 2125 2925 
Q 2075 2925 2025 3125 
Q 1925 3425 1600 3825 
z
M 925 3725 
Q 975 2925 862 2687 
Q 750 2450 562 2400 
Q 375 2350 300 2475 
Q 225 2600 475 2825 
Q 700 3025 825 3725 
L 925 3725 
z
" transform="scale(0.015625)"/>
       <path id="SimSun-6027" d="M 3975 3450 
Q 3975 4800 3950 5200 
L 4575 4925 
L 4325 4750 
L 4325 3450 
L 5050 3450 
L 5400 3800 
L 5900 3300 
L 4325 3300 
L 4325 1925 
L 4975 1925 
L 5300 2250 
L 5775 1775 
L 4325 1775 
L 4325 25 
L 5300 25 
L 5650 375 
L 6150 -125 
L 2875 -125 
Q 2550 -125 2275 -200 
L 2050 25 
L 3975 25 
L 3975 1775 
L 3450 1775 
Q 3125 1775 2850 1700 
L 2625 1925 
L 3975 1925 
L 3975 3300 
L 2950 3300 
Q 2625 2500 2225 2000 
L 2150 2050 
Q 2450 2650 2650 3387 
Q 2850 4125 2900 4600 
L 3475 4325 
L 3250 4175 
L 3000 3450 
L 3975 3450 
z
M 875 3625 
Q 950 2875 900 2687 
Q 850 2500 737 2437 
Q 625 2375 550 2375 
Q 500 2375 412 2412 
Q 325 2450 325 2475 
Q 325 2575 500 2775 
Q 725 3050 775 3625 
L 875 3625 
z
M 1575 3950 
Q 1975 3800 2150 3675 
Q 2325 3550 2300 3350 
Q 2275 3150 2175 3075 
Q 2075 3000 1975 3275 
Q 1850 3550 1575 3825 
L 1575 500 
Q 1575 75 1600 -425 
L 1200 -600 
Q 1225 125 1225 700 
L 1225 4225 
Q 1225 4650 1200 5250 
L 1800 4975 
L 1575 4800 
L 1575 3950 
z
" transform="scale(0.015625)"/>
       <path id="SimSun-8f6e" d="M 1625 2500 
Q 1625 3125 1600 3550 
L 2175 3300 
L 1950 3125 
L 1950 2500 
L 2150 2500 
L 2450 2800 
L 2875 2350 
L 1950 2350 
L 1950 1450 
L 2975 1775 
L 3000 1675 
L 1950 1225 
Q 1950 275 1975 -425 
L 1600 -600 
Q 1625 425 1625 1100 
Q 650 700 550 500 
L 250 1000 
Q 675 1075 1625 1350 
L 1625 2350 
L 950 2350 
L 775 2175 
L 475 2500 
L 675 2650 
L 1125 3900 
L 950 3900 
Q 750 3900 475 3825 
L 250 4050 
L 1175 4050 
Q 1325 4525 1500 5225 
L 2050 4850 
L 1750 4700 
L 1525 4050 
L 2275 4050 
L 2600 4375 
L 3050 3900 
L 1475 3900 
L 975 2500 
L 1625 2500 
z
M 4550 4900 
L 4325 4725 
Q 4925 3350 6125 3050 
L 6125 2975 
Q 5775 2925 5625 2675 
Q 4650 3400 4250 4600 
Q 3675 3300 2725 2600 
L 2675 2675 
Q 3100 3100 3450 3737 
Q 3800 4375 4050 5225 
L 4550 4900 
z
M 3350 1575 
Q 3350 2350 3325 2875 
L 3925 2575 
L 3675 2400 
L 3675 1300 
Q 4550 1875 5050 2550 
L 5450 2075 
L 5125 2025 
Q 4400 1525 3675 1175 
L 3675 375 
Q 3650 -150 4125 -100 
L 4975 -100 
Q 5225 -100 5250 325 
Q 5275 750 5275 1025 
L 5375 1025 
Q 5400 700 5437 375 
Q 5475 50 5750 -25 
Q 5600 -375 5125 -400 
L 3925 -400 
Q 3325 -400 3350 150 
L 3350 1575 
z
" transform="scale(0.015625)"/>
       <path id="SimSun-89d2" d="M 2325 4325 
Q 2075 3975 1800 3625 
L 1925 3475 
L 3450 3475 
L 3875 4325 
L 2325 4325 
z
M 1950 3325 
L 1950 2475 
L 3225 2475 
L 3225 3325 
L 1950 3325 
z
M 3575 3325 
L 3575 2475 
L 5025 2475 
L 5025 3325 
L 3575 3325 
z
M 1950 2325 
Q 1950 1850 1925 1475 
L 3225 1475 
L 3225 2325 
L 1950 2325 
z
M 3575 2325 
L 3575 1475 
L 5025 1475 
L 5025 2325 
L 3575 2325 
z
M 4050 -25 
Q 4650 -100 4837 -112 
Q 5025 -125 5025 75 
L 5025 1325 
L 3575 1325 
Q 3575 -50 3600 -300 
L 3175 -525 
Q 3225 -175 3225 1325 
L 1900 1325 
Q 1825 650 1450 162 
Q 1075 -325 400 -650 
L 350 -575 
Q 800 -250 1087 125 
Q 1375 500 1500 1012 
Q 1625 1525 1600 3400 
Q 1200 2975 550 2625 
L 475 2700 
Q 1125 3175 1650 3950 
Q 2175 4725 2300 5250 
L 2850 4900 
L 2625 4825 
Q 2525 4700 2400 4475 
L 3825 4475 
L 4100 4750 
L 4550 4300 
Q 4350 4250 4187 4137 
Q 4025 4025 3575 3475 
L 4925 3475 
L 5200 3750 
L 5600 3400 
L 5375 3225 
L 5375 50 
Q 5400 -300 5262 -437 
Q 5125 -575 4875 -675 
Q 4725 -300 4050 -150 
L 4050 -25 
z
" transform="scale(0.015625)"/>
       <path id="SimSun-901f" d="M 2800 3275 
L 2800 2400 
L 3700 2400 
L 3700 3275 
L 2800 3275 
z
M 4025 3275 
L 4025 2400 
L 4950 2400 
L 4950 3275 
L 4025 3275 
z
M 4025 1675 
Q 4025 800 4050 175 
L 3650 25 
Q 3700 775 3700 1875 
Q 2950 950 2000 450 
L 1950 525 
Q 3075 1375 3550 2250 
L 2800 2250 
L 2800 2025 
L 2475 1900 
L 2475 3600 
L 2800 3425 
L 3700 3425 
L 3700 4125 
L 2700 4125 
Q 2375 4125 2100 4050 
L 1875 4275 
L 3700 4275 
Q 3700 4650 3675 5175 
L 4250 4950 
L 4025 4775 
L 4025 4275 
L 5150 4275 
L 5475 4550 
L 5900 4125 
L 4025 4125 
L 4025 3425 
L 4900 3425 
L 5075 3675 
L 5500 3400 
L 5275 3225 
Q 5275 2575 5300 2100 
L 4950 1975 
L 4950 2250 
L 4025 2250 
L 4025 1800 
Q 4850 1550 5225 1350 
Q 5600 1150 5612 925 
Q 5625 700 5537 600 
Q 5450 500 5150 875 
Q 4850 1250 4025 1675 
z
M 675 4775 
L 750 4825 
Q 1125 4625 1350 4437 
Q 1575 4250 1562 4100 
Q 1550 3950 1450 3837 
Q 1350 3725 1300 3725 
Q 1200 3725 1125 4000 
Q 1000 4375 675 4775 
z
M 1600 675 
Q 1875 400 2287 150 
Q 2700 -100 3762 -112 
Q 4825 -125 6150 25 
L 6150 -75 
Q 5675 -225 5650 -475 
Q 4500 -500 3762 -475 
Q 3025 -450 2550 -250 
Q 2075 -50 1825 250 
Q 1550 525 1425 525 
Q 1300 525 1025 237 
Q 750 -50 625 -275 
L 275 50 
Q 675 400 1275 700 
L 1275 2675 
L 1050 2675 
Q 725 2675 450 2600 
L 225 2825 
L 1225 2825 
L 1400 3075 
L 1825 2775 
L 1600 2600 
L 1600 675 
z
" transform="scale(0.015625)"/>
       <path id="SimSun-5ea6" d="M 2550 2025 
Q 2575 2525 2575 3175 
L 1925 3175 
L 1625 3125 
L 1425 3325 
L 2575 3325 
Q 2575 3700 2550 4150 
L 3100 3875 
L 2900 3750 
L 2900 3325 
L 4300 3325 
Q 4300 3750 4275 4125 
L 4850 3875 
L 4625 3725 
L 4625 3325 
L 5100 3325 
L 5425 3650 
L 5900 3175 
L 4625 3175 
Q 4625 2450 4650 2225 
L 4300 2075 
L 4300 2300 
L 2900 2300 
L 2900 2175 
L 2550 2025 
z
M 4875 1500 
Q 4300 775 3900 425 
Q 4700 -75 6025 -125 
L 6025 -225 
Q 5625 -300 5550 -550 
Q 4375 -325 3675 225 
Q 2475 -450 1075 -625 
L 1050 -525 
Q 2375 -275 3450 450 
Q 2975 925 2575 1625 
L 2325 1625 
L 2100 1575 
L 1900 1775 
L 4525 1775 
L 4750 2000 
L 5125 1625 
L 4875 1500 
z
M 2700 1625 
Q 3175 975 3650 625 
Q 4150 1100 4500 1625 
L 2700 1625 
z
M 2900 3175 
L 2900 2450 
L 4300 2450 
L 4300 3175 
L 2900 3175 
z
M 975 4650 
L 1400 4400 
L 3375 4400 
Q 3350 4550 3262 4725 
Q 3175 4900 2900 5225 
L 2975 5275 
Q 3550 5025 3637 4887 
Q 3725 4750 3725 4725 
Q 3725 4575 3525 4400 
L 5150 4400 
L 5500 4750 
L 6000 4250 
L 1375 4250 
Q 1400 2750 1287 1912 
Q 1175 1075 925 475 
Q 675 -125 300 -625 
L 225 -575 
Q 725 300 862 1250 
Q 1000 2200 1012 3187 
Q 1025 4175 975 4650 
z
" transform="scale(0.015625)"/>
       <path id="SimSun-5747" d="M 4075 4875 
L 3825 4725 
Q 3650 4325 3475 3925 
L 5400 3925 
L 5625 4175 
L 5975 3850 
L 5775 3675 
Q 5725 800 5612 337 
Q 5500 -125 5275 -312 
Q 5050 -500 4725 -625 
Q 4625 -250 3800 -25 
L 3800 100 
Q 4575 -50 4887 -12 
Q 5200 25 5287 750 
Q 5375 1475 5425 3775 
L 3425 3775 
Q 2975 2950 2500 2450 
L 2400 2500 
Q 2875 3200 3150 3950 
Q 3425 4700 3475 5200 
L 4075 4875 
z
M 3500 3175 
Q 4075 2850 4237 2637 
Q 4400 2425 4400 2300 
Q 4400 2175 4287 2025 
Q 4175 1875 4125 1875 
Q 4050 1875 3975 2125 
Q 3875 2500 3425 3100 
L 3500 3175 
z
M 4975 1750 
Q 4525 1425 3850 1000 
Q 3150 550 2900 225 
L 2525 700 
Q 2875 800 3462 1075 
Q 4050 1350 4925 1850 
L 4975 1750 
z
M 1700 1100 
L 2775 1500 
L 2825 1375 
Q 1875 925 1325 637 
Q 775 350 650 175 
L 275 675 
Q 950 850 1350 1000 
L 1350 3150 
L 750 3150 
L 525 3100 
L 325 3300 
L 1350 3300 
Q 1350 4700 1325 5175 
L 1925 4875 
L 1700 4675 
L 1700 3300 
L 1975 3300 
L 2250 3575 
L 2650 3150 
L 1700 3150 
L 1700 1100 
z
" transform="scale(0.015625)"/>
       <path id="SimSun-7edd" d="M 3375 2950 
L 3375 1750 
L 4175 1750 
L 4175 2950 
L 3375 2950 
z
M 4475 2950 
L 4475 1750 
L 5300 1750 
L 5300 2950 
L 4475 2950 
z
M 4375 3100 
L 4900 4150 
L 3750 4150 
Q 3550 3800 3175 3275 
L 3375 3100 
L 4375 3100 
z
M 4300 4925 
L 4075 4800 
Q 3925 4500 3800 4300 
L 4875 4300 
L 5125 4550 
L 5525 4125 
Q 5275 4075 5037 3800 
Q 4800 3525 4525 3100 
L 5300 3100 
L 5525 3325 
L 5825 3025 
L 5625 2875 
Q 5625 1725 5650 1450 
L 5300 1275 
L 5300 1600 
L 3375 1600 
L 3375 225 
Q 3375 -150 3775 -150 
L 5400 -150 
Q 5575 -150 5600 62 
Q 5625 275 5650 975 
L 5775 975 
Q 5800 325 5862 162 
Q 5925 0 6100 -100 
Q 5950 -400 5737 -425 
Q 5525 -450 5450 -450 
L 3575 -450 
Q 3050 -450 3050 100 
L 3050 3125 
Q 2725 2800 2400 2600 
L 2325 2675 
Q 2925 3250 3287 3975 
Q 3650 4700 3800 5250 
L 4300 4925 
z
M 375 125 
Q 550 150 1087 312 
Q 1625 475 2700 900 
L 2750 800 
Q 850 -75 675 -325 
L 375 125 
z
M 1000 1575 
L 2700 1775 
L 2700 1675 
Q 2000 1525 1500 1387 
Q 1000 1250 725 1075 
L 475 1525 
Q 750 1575 1075 1962 
Q 1400 2350 1825 3000 
Q 1500 2950 1100 2850 
Q 700 2750 550 2600 
L 300 3075 
Q 575 3075 1025 3837 
Q 1475 4600 1650 5150 
L 2150 4825 
L 1900 4700 
Q 1300 3775 700 3075 
L 1900 3150 
Q 2175 3525 2450 4175 
L 2925 3825 
L 2650 3725 
Q 1850 2525 1000 1575 
z
" transform="scale(0.015625)"/>
       <path id="SimSun-5bf9" d="M 400 4250 
L 2375 4250 
L 2575 4500 
L 3000 4150 
L 2750 3950 
Q 2400 2850 2075 2100 
Q 2575 1375 2675 1062 
Q 2775 750 2762 537 
Q 2750 325 2662 237 
Q 2575 150 2550 150 
Q 2450 150 2375 575 
Q 2250 1075 1925 1800 
Q 1675 1350 1275 875 
Q 875 400 250 -100 
L 225 25 
Q 675 450 1087 1037 
Q 1500 1625 1725 2100 
Q 1000 3125 675 3550 
L 750 3625 
Q 1300 3025 1850 2400 
Q 2100 3050 2375 4100 
L 1225 4100 
Q 900 4100 625 4025 
L 400 4250 
z
M 3600 125 
Q 4375 0 4537 25 
Q 4700 50 4700 225 
L 4700 3350 
L 3525 3350 
Q 3200 3350 2925 3275 
L 2700 3500 
L 4700 3500 
L 4700 4350 
Q 4700 4800 4675 5125 
L 5275 4825 
L 5050 4625 
L 5050 3500 
L 5325 3500 
L 5650 3825 
L 6125 3350 
L 5050 3350 
L 5050 50 
Q 5050 -375 4500 -600 
Q 4500 -300 3600 0 
L 3600 125 
z
M 3100 2775 
L 3175 2825 
Q 3700 2400 3812 2175 
Q 3925 1950 3925 1800 
Q 3925 1625 3800 1462 
Q 3675 1300 3650 1300 
Q 3550 1300 3525 1650 
Q 3450 2125 3100 2775 
z
" transform="scale(0.015625)"/>
       <path id="SimSun-503c" d="M 1525 650 
Q 1525 -225 1550 -525 
L 1175 -650 
Q 1200 250 1200 550 
L 1200 3025 
Q 750 2300 325 1850 
L 250 1900 
Q 725 2625 1100 3525 
Q 1475 4425 1675 5200 
L 2200 4875 
L 1950 4725 
Q 1550 3800 1425 3475 
L 1725 3300 
L 1525 3150 
L 1525 650 
z
M 2875 3225 
L 2875 2475 
L 4800 2475 
L 4800 3225 
L 2875 3225 
z
M 2875 2325 
L 2875 1575 
L 4800 1575 
L 4800 2325 
L 2875 2325 
z
M 2875 1425 
L 2875 675 
L 4800 675 
L 4800 1425 
L 2875 1425 
z
M 2875 525 
L 2875 -225 
L 4800 -225 
L 4800 525 
L 2875 525 
z
M 3550 4250 
Q 3575 4825 3550 5225 
L 4125 4950 
L 3925 4800 
L 3900 4250 
L 5025 4250 
L 5350 4575 
L 5825 4100 
L 3900 4100 
L 3875 3375 
L 4750 3375 
L 4975 3625 
L 5350 3300 
L 5125 3150 
L 5125 -225 
L 5350 -225 
L 5675 100 
L 6150 -375 
L 2450 -375 
Q 2125 -375 1850 -450 
L 1625 -225 
L 2550 -225 
L 2550 2550 
Q 2550 2850 2525 3575 
L 2875 3375 
L 3525 3375 
L 3550 4100 
L 2800 4100 
Q 2475 4100 2200 4025 
L 1975 4250 
L 3550 4250 
z
" transform="scale(0.015625)"/>
       <path id="SimSun-29" d="M 275 5025 
L 400 5150 
Q 1100 4500 1450 3787 
Q 1800 3075 1800 2300 
Q 1800 1500 1450 787 
Q 1100 75 400 -550 
L 275 -425 
Q 850 175 1137 850 
Q 1425 1525 1425 2300 
Q 1425 3050 1137 3737 
Q 850 4425 275 5025 
z
" transform="scale(0.015625)"/>
      </defs>
      <use xlink:href="#SimSun-5e73"/>
      <use xlink:href="#SimSun-8861" transform="translate(100 0)"/>
      <use xlink:href="#SimSun-80fd" transform="translate(200 0)"/>
      <use xlink:href="#SimSun-8017" transform="translate(300 0)"/>
      <use xlink:href="#SimSun-28" transform="translate(400 0)"/>
      <use xlink:href="#SimSun-60ef" transform="translate(450 0)"/>
      <use xlink:href="#SimSun-6027" transform="translate(550 0)"/>
      <use xlink:href="#SimSun-8f6e" transform="translate(650 0)"/>
      <use xlink:href="#SimSun-89d2" transform="translate(750 0)"/>
      <use xlink:href="#SimSun-901f" transform="translate(850 0)"/>
      <use xlink:href="#SimSun-5ea6" transform="translate(950 0)"/>
      <use xlink:href="#SimSun-5e73" transform="translate(1050 0)"/>
      <use xlink:href="#SimSun-5747" transform="translate(1150 0)"/>
      <use xlink:href="#SimSun-7edd" transform="translate(1250 0)"/>
      <use xlink:href="#SimSun-5bf9" transform="translate(1350 0)"/>
      <use xlink:href="#SimSun-503c" transform="translate(1450 0)"/>
      <use xlink:href="#SimSun-29" transform="translate(1550 0)"/>
     </g>
    </g>
   </g>
   <g id="patch_6">
    <path d="M 50.99375 402.39875 
L 50.99375 10.8 
" style="fill: none; stroke: #000000; stroke-width: 0.8; stroke-linejoin: miter; stroke-linecap: square"/>
   </g>
   <g id="patch_7">
    <path d="M 277.2 402.39875 
L 277.2 10.8 
" style="fill: none; stroke: #000000; stroke-width: 0.8; stroke-linejoin: miter; stroke-linecap: square"/>
   </g>
   <g id="patch_8">
    <path d="M 50.99375 402.39875 
L 277.2 402.39875 
" style="fill: none; stroke: #000000; stroke-width: 0.8; stroke-linejoin: miter; stroke-linecap: square"/>
   </g>
   <g id="patch_9">
    <path d="M 50.99375 10.8 
L 277.2 10.8 
" style="fill: none; stroke: #000000; stroke-width: 0.8; stroke-linejoin: miter; stroke-linecap: square"/>
   </g>
  </g>
 </g>
 <defs>
  <clipPath id="p416e37dd7d">
   <rect x="50.99375" y="10.8" width="226.20625" height="391.59875"/>
  </clipPath>
 </defs>
</svg>
